<?xml version="1.0" encoding="iso-8859-1"?>
<!-- Generator: Adobe Illustrator 16.0.4, SVG Export Plug-In . SVG Version: 6.00 Build 0)  -->
<!DOCTYPE svg PUBLIC "-//W3C//DTD SVG 1.1//EN" "http://www.w3.org/Graphics/SVG/1.1/DTD/svg11.dtd">
<svg version="1.1" id="Layer_1" xmlns="http://www.w3.org/2000/svg" xmlns:xlink="http://www.w3.org/1999/xlink" x="0px" y="0px"
	 width="180px" height="180px" viewBox="0 0 180 180" style="enable-background:new 0 0 180 180;" xml:space="preserve">
<g>
	<g>
		<g>
			<path d="M90,30.178c32.983,0,59.822,26.84,59.822,59.822S122.983,149.822,90,149.822c-32.982,0-59.822-26.84-59.822-59.822
				S57.018,30.178,90,30.178 M90,14c-42.053,0-76,33.947-76,76c0,42.054,33.947,76,76,76c42.054,0,76-33.946,76-76
				C166,47.947,132.054,14,90,14L90,14z"/>
		</g>
		<path d="M119.197,86.268H95.254V58.436c0-4.277-3.501-7.777-7.777-7.777c-4.278,0-7.778,3.5-7.778,7.777c0,0,0,35.026,0,35.608
			c0,4.278,3.5,7.778,7.778,7.778h31.721c4.276,0,7.776-3.5,7.776-7.778C126.974,89.768,123.474,86.268,119.197,86.268z"/>
	</g>
</g>
</svg>
