<?xml version="1.0" encoding="utf-8"?>
<!-- Generator: Adobe Illustrator 16.0.4, SVG Export Plug-In . SVG Version: 6.00 Build 0)  -->
<!DOCTYPE svg PUBLIC "-//W3C//DTD SVG 1.1//EN" "http://www.w3.org/Graphics/SVG/1.1/DTD/svg11.dtd">
<svg version="1.1" id="Layer_1" xmlns="http://www.w3.org/2000/svg" xmlns:xlink="http://www.w3.org/1999/xlink" x="0px" y="0px"
	 width="180px" height="180px" viewBox="0 0 180 180" enable-background="new 0 0 180 180" xml:space="preserve">
<path d="M137.139,12L42.607,89.106l3.547-34.667c0.45-4.396-2.748-8.323-7.144-8.773c-4.398-0.445-8.323,2.749-8.772,7.144
	l-6.187,60.446l60.377,6.152c0.275,0.028,0.549,0.042,0.82,0.042c4.054,0,7.529-3.07,7.949-7.189
	c0.447-4.396-2.753-8.322-7.148-8.77l-31.793-3.24l84.918-69.265V160c0,4.418,3.582,8,8,8s8-3.582,8-8V12H137.139z"/>
</svg>
