<?xml version="1.0" encoding="utf-8"?>
<!-- Generator: Adobe Illustrator 16.0.4, SVG Export Plug-In . SVG Version: 6.00 Build 0)  -->
<!DOCTYPE svg PUBLIC "-//W3C//DTD SVG 1.1//EN" "http://www.w3.org/Graphics/SVG/1.1/DTD/svg11.dtd">
<svg version="1.1" id="Layer_1" xmlns="http://www.w3.org/2000/svg" xmlns:xlink="http://www.w3.org/1999/xlink" x="0px" y="0px"
	 width="180px" height="180px" viewBox="0 0 180 180" enable-background="new 0 0 180 180" xml:space="preserve">
<g>
	<path d="M121.735,14c-24.941,0-45.232,21.249-45.232,47.366c0,12.876,5.857,24.851,11.025,35.416
		c0.928,1.897,1.834,3.749,2.674,5.545c8.044,17.249,25.822,59.57,26.001,59.995c0.919,2.188,3.042,3.63,5.415,3.677
		c0.04,0.001,0.079,0.001,0.118,0.001c2.327,0,4.449-1.348,5.437-3.462c0.208-0.445,20.873-44.718,28.012-60.235
		c6.324-13.719,11.785-25.568,11.785-40.937C166.969,35.249,146.677,14,121.735,14z M121.735,39.216c7.72,0,14,6.282,14,14.004
		c0,7.718-6.28,13.997-14,13.997s-14-6.279-14-13.997C107.735,45.498,114.015,39.216,121.735,39.216z"/>
	<path fill="#010101" d="M50.255,87.211c-2.422-2.262-6.219-2.134-8.48,0.288c-2.262,2.421-2.133,6.218,0.288,8.48l15.927,14.881
		H19.032c-3.313,0-6,2.687-6,6s2.687,6,6,6h40.342L43.61,139.719c-2.263,2.42-2.136,6.217,0.284,8.48
		c1.157,1.082,2.628,1.618,4.097,1.618c1.603,0,3.203-0.639,4.384-1.902l29.307-31.34L50.255,87.211z"/>
</g>
</svg>
