<?xml version="1.0" encoding="utf-8"?>
<!-- Generator: Adobe Illustrator 16.0.4, SVG Export Plug-In . SVG Version: 6.00 Build 0)  -->
<!DOCTYPE svg PUBLIC "-//W3C//DTD SVG 1.1//EN" "http://www.w3.org/Graphics/SVG/1.1/DTD/svg11.dtd">
<svg version="1.1" id="Layer_1" xmlns="http://www.w3.org/2000/svg" xmlns:xlink="http://www.w3.org/1999/xlink" x="0px" y="0px"
	 width="180px" height="180px" viewBox="0 0 180 180" enable-background="new 0 0 180 180" xml:space="preserve">
<g>
	<g opacity="0.4">
		<path fill-rule="evenodd" clip-rule="evenodd" d="M107.629,157.761c-2.809,5.414-7.568,8.032-13.645,8.119
			c-6.367,0.101-11.348-2.518-14.336-8.19c-1.461,3.504-4.277,5.651-7.785,7.067c-4.225,1.672-8.533,1.643-12.732,0.029
			c-4.91-1.878-6.924-5.676-7.275-10.398c-0.049-0.653,0-1.332,0-2.174c2.799,3.773,6.973,4.596,11.24,5.067
			c3.285,0.369,6.594,0.131,9.77-0.784c2.773-0.815,5.348-1.904,6.836-4.597c1.475,2.649,3.984,3.812,6.717,4.545
			c5.053,1.371,10.141,1.323,15.166-0.192c2.883-0.876,4.385-1.97,6.049-4.273c2.012,3.289,5.441,4.355,9.041,4.992
			c4.596,0.815,9.168,0.594,13.592-0.984c2.174-0.775,4.08-1.883,5.238-4.038c2.676,4.021,7.033,4.895,11.49,5.332
			c4.48,0.422,8.934,0.012,12.965-2.104c1.27-0.671,2.307-1.721,3.318-2.504c0.74,5.454-2.273,10.433-7.307,12.179
			c-5.504,1.896-10.748,1.411-15.635-1.677c-2.217-1.425-3.105-2.47-4.746-5.398c-2.848,5.445-7.729,8.09-13.951,8.112
			C115.402,165.902,110.492,163.292,107.629,157.761z"/>
	</g>
	<g>
		<path d="M41.13,80.891c-1.603,0-3.202-0.639-4.383-1.901L8.129,48.388l30.687-28.672c2.422-2.262,6.218-2.135,8.48,0.287
			s2.134,6.219-0.287,8.48L25.094,48.96l20.417,21.832c2.264,2.421,2.137,6.218-0.283,8.48C44.07,80.354,42.599,80.891,41.13,80.891
			z"/>
	</g>
	<g>
		<path d="M61.295,54.674H21.1c-3.313,0-6-2.687-6-6s2.687-6,6-6h40.195c3.313,0,6,2.687,6,6S64.608,54.674,61.295,54.674z"/>
	</g>
	<path fill-rule="evenodd" clip-rule="evenodd" d="M164.143,96.956l-10.366-5.14l-4.88-24.052c-0.369-1.814-1.626-3.322-3.345-4.012
		l-8.422-3.375l-2.11-19.589c-0.254-2.355-1.986-4.283-4.301-4.786l-7.92-1.721v-14.51c0-3.037-2.463-5.5-5.5-5.5H96.311
		c-3.037,0-5.5,2.463-5.5,5.5v14.51l-7.92,1.721c-2.313,0.503-4.047,2.431-4.301,4.785l-2.112,19.59l-8.42,3.375
		c-1.719,0.689-2.977,2.197-3.345,4.012l-4.888,24.093L49.651,96.97c-2.43,1.221-3.603,4.035-2.759,6.62l10.707,32.81
		c0.188,0.578,0.472,1.12,0.837,1.605c2.725,3.613,5.974,7.164,13.015,7.456c0.165,0.006,0.339,0.01,0.523,0.01
		c1.098,0,3.197-0.148,5.558-1.076c3.426,2.967,8.404,4.633,14.256,4.633c4.634,0,10.594-1.183,15.123-4.245
		c4.528,3.062,10.488,4.245,15.122,4.245c5.852,0,10.83-1.667,14.256-4.634c2.36,0.929,4.459,1.077,5.557,1.077
		c0.185,0,0.359-0.004,0.532-0.011c7.036-0.291,10.284-3.843,13.007-7.457c0.365-0.484,0.647-1.026,0.836-1.604l10.707-32.81
		C167.775,100.994,166.589,98.169,164.143,96.956z M108.982,69.609c-1.55-0.768-3.367-0.764-4.913,0.014L72.324,85.576l2.579-12.717
		l8.734-3.5c1.888-0.757,3.204-2.493,3.423-4.516l2.041-18.934l8.377-1.819c0.681-0.148,1.303-0.427,1.857-0.793h14.938
		c0.555,0.366,1.177,0.645,1.857,0.793l8.376,1.819l2.04,18.933c0.219,2.022,1.535,3.76,3.423,4.517l8.736,3.501l2.591,12.77
		L108.982,69.609z"/>
</g>
</svg>
