<?xml version="1.0" encoding="utf-8"?>
<!-- Generator: Adobe Illustrator 16.0.4, SVG Export Plug-In . SVG Version: 6.00 Build 0)  -->
<!DOCTYPE svg PUBLIC "-//W3C//DTD SVG 1.1//EN" "http://www.w3.org/Graphics/SVG/1.1/DTD/svg11.dtd">
<svg version="1.1" id="Layer_1" xmlns="http://www.w3.org/2000/svg" xmlns:xlink="http://www.w3.org/1999/xlink" x="0px" y="0px"
	 width="180px" height="180px" viewBox="0 0 180 180" enable-background="new 0 0 180 180" xml:space="preserve">
<g>
	<path d="M58.267,14c-24.943,0-45.235,21.249-45.235,47.366c0,15.365,5.461,27.215,11.784,40.933
		c7.141,15.521,27.807,59.794,28.015,60.239c0.987,2.115,3.109,3.462,5.436,3.462c0.039,0,0.079,0,0.118-0.001
		c2.374-0.047,4.496-1.488,5.415-3.677c0.179-0.425,17.954-42.745,25.999-59.992c0.842-1.801,1.749-3.655,2.677-5.553
		c5.167-10.563,11.023-22.537,11.023-35.411C103.498,35.249,83.207,14,58.267,14z M58.267,39.216c7.719,0,14,6.282,14,14.003
		c0,7.718-6.28,13.997-14,13.997c-7.72,0-14-6.279-14-13.997C44.267,45.498,50.547,39.216,58.267,39.216z"/>
	<path fill="#010101" d="M160.969,110.861H122.01l15.928-14.882c2.421-2.262,2.55-6.059,0.288-8.48
		c-2.263-2.421-6.06-2.551-8.48-0.288l-31.428,29.364l29.308,31.341c1.181,1.263,2.78,1.902,4.384,1.902
		c1.468,0,2.939-0.536,4.097-1.618c2.42-2.263,2.547-6.06,0.284-8.48l-15.765-16.858h40.343c3.313,0,6-2.687,6-6
		S164.282,110.861,160.969,110.861z"/>
</g>
</svg>
