<?xml version="1.0" encoding="utf-8"?>
<!-- Generator: Adobe Illustrator 16.0.4, SVG Export Plug-In . SVG Version: 6.00 Build 0)  -->
<!DOCTYPE svg PUBLIC "-//W3C//DTD SVG 1.1//EN" "http://www.w3.org/Graphics/SVG/1.1/DTD/svg11.dtd">
<svg version="1.1" id="Layer_1" xmlns="http://www.w3.org/2000/svg" xmlns:xlink="http://www.w3.org/1999/xlink" x="0px" y="0px"
	 width="180px" height="180px" viewBox="0 0 180 180" enable-background="new 0 0 180 180" xml:space="preserve">
<g>
	<g>
		<g opacity="0.4">
			<rect x="136.9" y="13" width="14" height="141"/>
		</g>
	</g>
	<path d="M58.091,36.01l31.008-8.281c4.269-1.14,6.805-5.524,5.665-9.793c-1.141-4.269-5.521-6.808-9.794-5.665l-58.112,15.52
		l15.565,58.178c0.957,3.576,4.189,5.935,7.723,5.935c0.684,0,1.38-0.088,2.072-0.274c4.269-1.142,6.803-5.527,5.661-9.795
		l-8.681-32.447l86.144,46.869V160c0,4.418,3.582,8,8,8s8-3.582,8-8V86.746L58.091,36.01z"/>
</g>
</svg>
