<?xml version="1.0" encoding="utf-8"?>
<!-- Generator: Adobe Illustrator 16.0.4, SVG Export Plug-In . SVG Version: 6.00 Build 0)  -->
<!DOCTYPE svg PUBLIC "-//W3C//DTD SVG 1.1//EN" "http://www.w3.org/Graphics/SVG/1.1/DTD/svg11.dtd">
<svg version="1.1" id="Layer_1" xmlns="http://www.w3.org/2000/svg" xmlns:xlink="http://www.w3.org/1999/xlink" x="0px" y="0px"
	 width="180px" height="180px" viewBox="0 0 180 180" enable-background="new 0 0 180 180" xml:space="preserve">
<path d="M149.762,52.811c-0.449-4.396-4.391-7.593-8.772-7.144c-4.396,0.45-7.594,4.377-7.144,8.773l3.547,34.667L42.861,12H24.825
	v148c0,4.418,3.582,8,8,8s8-3.582,8-8V30.986l84.918,69.265l-31.793,3.24c-4.396,0.448-7.596,4.375-7.148,8.77
	c0.42,4.12,3.896,7.19,7.949,7.189c0.271,0,0.545-0.014,0.82-0.042l60.377-6.152L149.762,52.811z"/>
</svg>
