<?xml version="1.0" encoding="utf-8"?>
<!-- Generator: Adobe Illustrator 16.0.4, SVG Export Plug-In . SVG Version: 6.00 Build 0)  -->
<!DOCTYPE svg PUBLIC "-//W3C//DTD SVG 1.1//EN" "http://www.w3.org/Graphics/SVG/1.1/DTD/svg11.dtd">
<svg version="1.1" id="Layer_1" xmlns="http://www.w3.org/2000/svg" xmlns:xlink="http://www.w3.org/1999/xlink" x="0px" y="0px"
	 width="180px" height="180px" viewBox="0 0 180 180" enable-background="new 0 0 180 180" xml:space="preserve">
<g>
	<path opacity="0.4" d="M153.001,64.289c-1.238-3.663-5.21-5.626-8.873-4.391l-21.11,7.135
		c-5.315-7.015-13.083-12.071-22.018-13.878V27.003c0-3.866-3.134-7-7-7s-7,3.134-7,7v26.045
		c-14.745,2.729-26.432,14.277-29.353,28.955H34c-3.866,0-7,3.134-7,7s3.134,7,7,7h23.581c0.705,3.746,1.974,7.295,3.726,10.55
		l-17.519,10.114c-3.348,1.933-4.496,6.214-2.563,9.562c1.297,2.245,3.65,3.501,6.069,3.501c1.188,0,2.391-0.303,3.493-0.938
		l19.518-11.268c6.361,5.262,14.516,8.428,23.396,8.428c20.272,0,36.766-16.492,36.766-36.764c0-3.275-0.437-6.449-1.244-9.474
		l19.388-6.553C152.272,71.924,154.238,67.951,153.001,64.289z M93.701,111.952c-12.552,0-22.764-10.212-22.764-22.764
		s10.212-22.764,22.764-22.764c12.553,0,22.766,10.212,22.766,22.764S106.254,111.952,93.701,111.952z"/>
	<path d="M150.315,99.885L128.5,64.863L93.566,86.642c-3.749,2.338-4.894,7.272-2.557,11.021c2.337,3.748,7.271,4.894,11.021,2.557
		l13.258-8.266c-1.262,10.849-9.841,18.998-20.588,18.998c-3.014,0-5.636,1.668-7,4.13C86.639,116.44,86,118.146,86,120.003v34
		c0,4.418,3.582,8,8,8s8-3.582,8-8v-27.77c14.143-2.817,25.137-13.71,28.438-27.999l6.298,10.109
		c1.516,2.435,4.126,3.771,6.798,3.771c1.443,0,2.906-0.391,4.222-1.211C151.506,108.568,152.651,103.635,150.315,99.885z"/>
</g>
</svg>
