<?xml version="1.0" encoding="utf-8"?>
<!-- Generator: Adobe Illustrator 16.0.4, SVG Export Plug-In . SVG Version: 6.00 Build 0)  -->
<!DOCTYPE svg PUBLIC "-//W3C//DTD SVG 1.1//EN" "http://www.w3.org/Graphics/SVG/1.1/DTD/svg11.dtd">
<svg version="1.1" id="Layer_1" xmlns="http://www.w3.org/2000/svg" xmlns:xlink="http://www.w3.org/1999/xlink" x="0px" y="0px"
	 width="180px" height="180px" viewBox="0 0 180 180" enable-background="new 0 0 180 180" xml:space="preserve">
<path d="M89.999,14c-24.941,0-45.232,21.248-45.232,47.366c0,12.876,5.857,24.851,11.025,35.416
	c0.928,1.896,1.834,3.749,2.674,5.545c8.044,17.249,25.822,59.57,26.001,59.995c0.919,2.188,3.041,3.63,5.415,3.677
	C89.921,166,89.96,166,90,166c2.326,0,4.448-1.348,5.436-3.462c0.208-0.445,20.873-44.718,28.013-60.235
	c6.323-13.72,11.785-25.568,11.785-40.937C135.233,35.248,114.941,14,89.999,14z M89.999,39.216c7.72,0,14,6.282,14,14.004
	c0,7.718-6.28,13.997-14,13.997s-14-6.279-14-13.997C75.999,45.498,82.279,39.216,89.999,39.216z"/>
</svg>
