<?xml version="1.0" encoding="utf-8"?>
<!-- Generator: Adobe Illustrator 16.0.4, SVG Export Plug-In . SVG Version: 6.00 Build 0)  -->
<!DOCTYPE svg PUBLIC "-//W3C//DTD SVG 1.1//EN" "http://www.w3.org/Graphics/SVG/1.1/DTD/svg11.dtd">
<svg version="1.1" id="Layer_1" xmlns="http://www.w3.org/2000/svg" xmlns:xlink="http://www.w3.org/1999/xlink" x="0px" y="0px"
	 width="180px" height="180px" viewBox="0 0 180 180" enable-background="new 0 0 180 180" xml:space="preserve">
<g>
	<g opacity="0.4">
		<path d="M93,61.003c-2.209,0-4-1.791-4-4v-28c0-2.209,1.791-4,4-4s4,1.791,4,4v28C97,59.212,95.209,61.003,93,61.003z"/>
	</g>
	<g opacity="0.4">
		<path d="M93,163.003c-2.209,0-4-1.791-4-4v-27c0-2.209,1.791-4,4-4s4,1.791,4,4v27C97,161.212,95.209,163.003,93,163.003z"/>
	</g>
	<path opacity="0.4" d="M152.795,69.75c-1.237-3.661-5.208-5.631-8.873-4.389l-21.546,7.283
		c-6.808-9.028-17.619-14.878-29.772-14.878c-18.495,0-33.88,13.546-36.772,31.236H34c-3.866,0-7,3.134-7,7s3.134,7,7,7h22.202
		c0.754,3.446,1.979,6.718,3.615,9.737l-17.912,10.341c-3.348,1.934-4.495,6.214-2.562,9.562c1.297,2.246,3.649,3.501,6.069,3.501
		c1.188,0,2.391-0.303,3.493-0.938l19.918-11.499c6.458,5.365,14.748,8.597,23.78,8.597c20.551,0,37.271-16.718,37.271-37.268
		c0-3.359-0.454-6.613-1.292-9.712l19.824-6.701C152.068,77.386,154.033,73.413,152.795,69.75z M92.604,118.304
		c-6.942,0-13.181-3.061-17.447-7.898c-0.021-0.023-0.041-0.048-0.062-0.072c-3.581-4.093-5.758-9.443-5.758-15.297
		c0-12.831,10.438-23.27,23.268-23.27c12.831,0,23.271,10.438,23.271,23.27C115.874,107.866,105.435,118.304,92.604,118.304z"/>
	<path d="M130.874,95.036c0-18.217-12.799-33.491-29.874-37.33V41.371l10.704,10.01c3.227,3.02,8.289,2.85,11.307-0.379
		c3.019-3.227,2.849-8.289-0.379-11.307l-30.48-28.506l-28.557,30.56c-3.016,3.229-2.845,8.291,0.384,11.307
		c1.543,1.442,3.503,2.155,5.46,2.155c2.139,0,4.272-0.853,5.847-2.538L85,42.276v18.727c0,0.363,0.032,0.718,0.079,1.067
		c-0.302,0.844-0.476,1.749-0.476,2.696c0,4.418,3.582,8,8,8c12.28,0,22.271,9.99,22.271,22.27c0,12.007-8.641,21.508-19.91,22.22
		c-0.629-0.159-1.285-0.253-1.964-0.253c-4.418,0-8,3.582-8,8v34c0,4.418,3.582,8,8,8s8-3.582,8-8v-26.427
		C118.238,129.145,130.874,113.886,130.874,95.036z"/>
</g>
</svg>
