<?xml version="1.0" encoding="utf-8"?>
<!-- Generator: Adobe Illustrator 16.0.4, SVG Export Plug-In . SVG Version: 6.00 Build 0)  -->
<!DOCTYPE svg PUBLIC "-//W3C//DTD SVG 1.1//EN" "http://www.w3.org/Graphics/SVG/1.1/DTD/svg11.dtd">
<svg version="1.1" id="Layer_1" xmlns="http://www.w3.org/2000/svg" xmlns:xlink="http://www.w3.org/1999/xlink" x="0px" y="0px"
	 width="180px" height="180px" viewBox="0 0 180 180" enable-background="new 0 0 180 180" xml:space="preserve">
<path d="M58.091,36.011l31.008-8.282c4.269-1.14,6.805-5.524,5.665-9.793c-1.14-4.269-5.524-6.804-9.793-5.665L26.858,27.792
	L42.424,85.97c0.957,3.576,4.189,5.934,7.723,5.934c0.684,0,1.38-0.088,2.073-0.274c4.268-1.142,6.802-5.527,5.66-9.796
	l-8.681-32.446l86.146,46.868V160c0,4.418,3.582,8,8,8s8-3.582,8-8V86.746L58.091,36.011z"/>
</svg>
