<?xml version="1.0" encoding="utf-8"?>
<!-- Generator: Adobe Illustrator 16.0.4, SVG Export Plug-In . SVG Version: 6.00 Build 0)  -->
<!DOCTYPE svg PUBLIC "-//W3C//DTD SVG 1.1//EN" "http://www.w3.org/Graphics/SVG/1.1/DTD/svg11.dtd">
<svg version="1.1" id="Layer_1" xmlns="http://www.w3.org/2000/svg" xmlns:xlink="http://www.w3.org/1999/xlink" x="0px" y="0px"
	 width="180px" height="180px" viewBox="0 0 180 180" enable-background="new 0 0 180 180" xml:space="preserve">
<g>
	<g>
		<g opacity="0.4">
			<rect x="29.377" y="13" width="14" height="141"/>
		</g>
	</g>
	<path d="M95.308,12.271c-4.273-1.142-8.653,1.396-9.794,5.665c-1.14,4.269,1.396,8.653,5.665,9.793l31.008,8.281L28.936,86.746V160
		c0,4.418,3.582,8,8,8s8-3.582,8-8V96.255l86.144-46.869l-8.681,32.447c-1.142,4.268,1.393,8.654,5.661,9.795
		c0.692,0.186,1.388,0.274,2.072,0.274c3.533,0,6.767-2.359,7.724-5.935l15.564-58.178L95.308,12.271z"/>
</g>
</svg>
