<?xml version="1.0" encoding="utf-8"?>
<!-- Generator: Adobe Illustrator 16.0.4, SVG Export Plug-In . SVG Version: 6.00 Build 0)  -->
<!DOCTYPE svg PUBLIC "-//W3C//DTD SVG 1.1//EN" "http://www.w3.org/Graphics/SVG/1.1/DTD/svg11.dtd">
<svg version="1.1" id="Layer_1" xmlns="http://www.w3.org/2000/svg" xmlns:xlink="http://www.w3.org/1999/xlink" x="0px" y="0px"
	 width="180px" height="180px" viewBox="0 0 180 180" enable-background="new 0 0 180 180" xml:space="preserve">
<path d="M155.863,151c-30.059,0-54.539-24.52-54.881-54.787c0.004-0.114,0.018-0.226,0.018-0.34V46.656l23.163,24.821
	c1.575,1.688,3.71,2.542,5.851,2.542c1.955,0,3.914-0.712,5.456-2.151c3.23-3.014,3.405-8.077,0.391-11.307L91.187,12.69
	L43.399,57.329c-3.229,3.016-3.401,8.079-0.385,11.307c3.016,3.229,8.078,3.401,11.307,0.385L79,45.969v49.904
	c0,0.106,0.013,0.209,0.016,0.314C78.688,126.466,54.202,151,24.136,151c-4.418,0-8,3.582-8,8c0,4.418,3.582,8,8,8
	c29.845,0,55.423-18.686,65.863-45.047C100.438,148.314,126.018,167,155.863,167c4.418,0,8-3.582,8-8
	C163.863,154.582,160.281,151,155.863,151z"/>
</svg>
