<?xml version="1.0" encoding="utf-8"?>
<!-- Generator: Adobe Illustrator 16.0.4, SVG Export Plug-In . SVG Version: 6.00 Build 0)  -->
<!DOCTYPE svg PUBLIC "-//W3C//DTD SVG 1.1//EN" "http://www.w3.org/Graphics/SVG/1.1/DTD/svg11.dtd">
<svg version="1.1" id="Layer_1" xmlns="http://www.w3.org/2000/svg" xmlns:xlink="http://www.w3.org/1999/xlink" x="0px" y="0px"
	 width="180px" height="180px" viewBox="0 0 180 180" enable-background="new 0 0 180 180" xml:space="preserve">
<g>
	<path d="M156.145,98.559c0-7.868-6.439-14.308-14.308-14.308h-2.766l-6.084-21.067c-3.162-11.479-14.964-20.471-26.874-20.471
		H71.997c-11.853,0-23.786,8.897-27.169,20.256l-6.645,21.282h-0.02c-7.869,0-14.308,6.439-14.308,14.308v31.481h11.555v9.503
		c0,3.934,3.219,7.152,7.152,7.152h3.335c3.933,0,7.155-3.219,7.155-7.152v-9.503h72.159v9.503c0,3.934,3.22,7.152,7.153,7.152
		h3.335c3.933,0,7.153-3.219,7.153-7.152v-9.503h13.292V98.559z M56.253,66.373c1.865-6.253,9.221-11.737,15.744-11.737h34.116
		c6.476,0,13.658,5.474,15.379,11.714l5.213,17.901H50.625L56.253,66.373z M45.898,113.386c-5.237-0.125-9.151-4.312-9.081-9.646
		c0.082-5.008,4.327-9.042,9.466-8.964c5.144,0.082,9.312,4.317,9.225,9.399C55.407,109.382,51.12,113.483,45.898,113.386z
		 M133.574,113.369c-5.125,0.01-9.228-4.059-9.24-9.165c-0.018-5.388,4.055-9.461,9.395-9.434c5.11,0,9.189,4.125,9.205,9.22
		C142.939,109.314,138.883,113.356,133.574,113.369z"/>
</g>
</svg>
