<?xml version="1.0" encoding="utf-8"?>
<!-- Generator: Adobe Illustrator 16.0.4, SVG Export Plug-In . SVG Version: 6.00 Build 0)  -->
<!DOCTYPE svg PUBLIC "-//W3C//DTD SVG 1.1//EN" "http://www.w3.org/Graphics/SVG/1.1/DTD/svg11.dtd">
<svg version="1.1" id="Layer_1" xmlns="http://www.w3.org/2000/svg" xmlns:xlink="http://www.w3.org/1999/xlink" x="0px" y="0px"
	 width="180px" height="180px" viewBox="0 0 180 180" enable-background="new 0 0 180 180" xml:space="preserve">
<path fill-rule="evenodd" clip-rule="evenodd" d="M133.851,90.269c-3.335,0-6.534,0.583-9.504,1.646
	c-3.09-6.378-13.301-27.454-13.527-27.975c1.582-0.089,2.944-0.059,4.272-0.269c3.034-0.476,4.896-3.565,3.843-6.449
	c-0.61-1.667-1.346-3.321-2.297-4.807c-0.416-0.647-1.244-1.155-2.302-1.155c-0.887,0-1.64,0.81-1.95,1.497
	c-0.296,0.643-0.052,1.649,0.217,2.403c0.429,1.204,1.708,3.731,1.708,3.731s-10.086,0.033-14.78,0
	c-1.214-0.009-2.116-0.653-2.642-1.795c-0.666-1.447-1.349-2.89-2.065-4.312c-0.75-1.493-2.021-1.998-3.354-1.391
	c-1.275,0.583-1.777,2.021-1.132,3.451c0.733,1.625,1.488,3.237,2.314,4.815c1.212,2.316,3.135,3.755,5.748,4.02
	c1.908,0.191,3.846,0.061,5.76,0.206c0.526,0.042,1.251,0.448,1.479,0.894c1.424,2.8,4.349,9.563,4.349,9.563H68.275l-3.184-5.379
	h2.282c1.622-0.009,2.631-1.031,2.631-2.495c-0.001-1.457-1.014-2.422-2.666-2.427H56.536c-1.652,0.005-2.665,0.97-2.667,2.427
	c0,1.464,1.009,2.486,2.631,2.495h2.704l-0.029,0.021l5.918,10.217l-7.498,13.494c-3.499-1.556-7.37-2.427-11.446-2.427
	c-15.582,0-28.214,12.631-28.214,28.212c0,15.582,12.632,28.215,28.214,28.215c14.655,0,26.697-11.175,28.079-25.468h8.169
	c1.224,3.637,4.655,6.26,8.704,6.26c5.076,0,9.189-4.114,9.189-9.189c0-2.929-1.375-5.531-3.509-7.215l17.157-28.914l5.892,11.834
	c-8.479,4.866-14.194,14.001-14.194,24.478c0,15.582,12.632,28.215,28.215,28.215c15.581,0,28.213-12.633,28.213-28.215
	C162.064,102.899,149.432,90.269,133.851,90.269z M82.317,115.596h-8.099c-0.867-8.538-5.542-15.95-12.299-20.513l6.214-11.095
	l16.558,27.731C83.603,112.781,82.775,114.106,82.317,115.596z M92.192,109.18c-0.359-0.043-0.722-0.071-1.091-0.071
	c-0.722,0-1.422,0.092-2.096,0.25L71.211,79.302h38.498L92.192,109.18z"/>
</svg>
