<?xml version="1.0" encoding="utf-8"?>
<!-- Generator: Adobe Illustrator 16.0.4, SVG Export Plug-In . SVG Version: 6.00 Build 0)  -->
<!DOCTYPE svg PUBLIC "-//W3C//DTD SVG 1.1//EN" "http://www.w3.org/Graphics/SVG/1.1/DTD/svg11.dtd">
<svg version="1.1" id="Layer_1" xmlns="http://www.w3.org/2000/svg" xmlns:xlink="http://www.w3.org/1999/xlink" x="0px" y="0px"
	 width="180px" height="180px" viewBox="0 0 180 180" enable-background="new 0 0 180 180" xml:space="preserve">
<g id="B1sf01_6_">
	<path d="M124.684,137.263c-0.834-3.486-3.768-5.365-7.611-4.825c-0.154-0.271-0.304-0.537-0.447-0.807
		c-1.697-3.175-3.39-6.351-5.083-9.528c-4.751-8.913-9.664-18.131-14.586-27.148c-1.144-2.1-1.643-4.195-1.617-6.793
		c0.045-4.916,0.053-9.876,0.05-14.797c3.463,2.63,7.854,5.881,11.8,8.802c2.146,1.589,4.175,3.092,5.876,4.36
		c1.037,0.776,2.264,1.188,3.548,1.188c1.584,0,3.125-0.62,4.338-1.745c1.421-1.32,2.157-3.051,2.07-4.877
		c-0.093-1.96-1.104-3.775-2.848-5.112c-4.927-3.778-9.864-7.544-14.802-11.308l-3.688-2.812c-0.662-0.505-2.227-1.605-3.739-2.67
		c-1.366-0.961-2.777-1.955-3.392-2.416l-0.205-0.154c-0.734-1.187-1.834-2.084-3.248-2.558c-2.67-0.896-5.333-0.053-7.252,2.293
		l-5.125,6.285c-3.137,3.849-6.275,7.697-9.421,11.54c-1.499,1.828-3.003,3.652-4.509,5.477c-2.333,2.826-4.666,5.652-6.976,8.499
		L57.7,88.302c-1.095,1.35-2.336,2.879-2.239,5.027c0.141,3.075,1.728,5.254,4.473,6.133c2.605,0.836,5.191-0.028,7.1-2.363
		c2.194-2.683,4.383-5.367,6.574-8.053l4.767-5.842c1.145-1.403,2.294-2.804,3.477-4.244l0.808-0.985
		c-0.013,4.236-0.031,8.475-0.053,12.71c-0.009,2.19,0.096,4.512,1.269,6.777L68.29,117.275c-3.859,4.905-7.718,9.809-11.572,14.719
		c-1.902,2.43-2.094,5.347-0.502,7.611c1.243,1.774,2.625,3.508,4.108,5.15c1.098,1.22,2.736,1.918,4.494,1.918
		c1.101,0,2.175-0.275,3.105-0.796c2.536-1.414,3.792-4.298,3.054-7.011c-0.224-0.826-0.619-1.579-1-2.308
		c-0.083-0.159-0.167-0.32-0.251-0.482c0.118-0.155,0.243-0.319,0.373-0.483l4.148-5.274c5.047-6.417,10.094-12.834,15.122-19.262
		c0.367-0.469,0.944-1.555,0.566-2.382c0.182,0.344,0.371,0.695,0.552,1.037c0.826,1.559,1.652,3.118,2.483,4.675l4.809,8.993
		c3.503,6.555,7.007,13.11,10.523,19.66c1.246,2.322,3.304,3.654,5.648,3.654c0.662,0,1.335-0.108,2.002-0.321
		c1.637-0.524,3.319-1.162,5.144-1.948C123.88,143.223,125.391,140.21,124.684,137.263z"/>
	<g>
		<path d="M90.659,28.973c-6.332-0.031-11.152,4.812-11.126,11.187c0.023,6.049,4.881,10.854,10.961,10.843
			c6.283-0.012,11.064-4.807,11.059-11.089C101.548,33.863,96.708,29,90.659,28.973z"/>
	</g>
</g>
</svg>
