<?xml version="1.0" encoding="utf-8"?>
<!-- Generator: Adobe Illustrator 16.0.4, SVG Export Plug-In . SVG Version: 6.00 Build 0)  -->
<!DOCTYPE svg PUBLIC "-//W3C//DTD SVG 1.1//EN" "http://www.w3.org/Graphics/SVG/1.1/DTD/svg11.dtd">
<svg version="1.1" id="Layer_1" xmlns="http://www.w3.org/2000/svg" xmlns:xlink="http://www.w3.org/1999/xlink" x="0px" y="0px"
	 width="180px" height="180px" viewBox="0 0 180 180" enable-background="new 0 0 180 180" xml:space="preserve">
<g>
	<g>
		<path fill="#FFFFFF" d="M90,18.115c-23.59,0-42.785,20.097-42.785,44.809c0,12.17,5.543,23.502,10.431,33.493
			c0.879,1.787,1.739,3.548,2.529,5.238c7.609,16.321,24.424,56.352,24.592,56.751c0.874,2.071,2.878,3.438,5.126,3.479
			c0.032,0,0.072,0,0.112,0c2.2,0,4.204-1.273,5.14-3.267c0.195-0.429,19.737-42.309,26.492-56.981
			c5.982-12.977,11.148-24.18,11.148-38.713C132.785,38.212,113.596,18.115,90,18.115z"/>
		<path d="M90.005,166h-0.112c-3.938-0.069-7.411-2.422-8.917-5.994c-2.932-6.969-17.556-41.654-24.53-56.611
			c-0.777-1.664-1.627-3.397-2.492-5.16c-5.091-10.407-10.854-22.188-10.854-35.311C43.099,35.947,64.138,14,90,14
			s46.901,21.947,46.901,48.924c0,15.437-5.341,27.02-11.527,40.434c-5.522,11.995-19.587,42.166-24.648,53.028l-1.841,3.947
			C97.264,163.789,93.786,166,90.005,166z M90,22.231c-21.323,0-38.67,18.255-38.67,40.692c0,11.217,5.318,22.087,10.011,31.68
			c0.89,1.809,1.76,3.596,2.562,5.308c7.039,15.097,21.717,49.91,24.589,56.735c0.312,0.733,0.863,1.111,1.474,1.122l0.04,4.116
			v-4.116c0.604,0,1.158-0.354,1.412-0.897c0.02-0.04,0.708-1.514,1.847-3.963c5.062-10.854,19.115-41.007,24.635-52.991
			c5.779-12.54,10.771-23.365,10.771-36.993C128.67,40.486,111.323,22.231,90,22.231z"/>
	</g>
	<g>
		<path d="M73.757,37.493h15.401c7.016,0,12.111,0.997,15.278,2.993c3.173,1.999,4.759,5.174,4.759,9.528
			c0,2.955-0.696,5.38-2.084,7.277c-1.389,1.895-3.231,3.033-5.53,3.416v0.341c3.135,0.699,5.396,2.007,6.784,3.925
			c1.388,1.919,2.079,4.467,2.079,7.65c0,4.512-1.629,8.03-4.888,10.557c-3.264,2.529-7.689,3.792-13.284,3.792H73.757V37.493z
			 M84.25,57.088h6.093c2.841,0,4.903-0.439,6.174-1.32c1.275-0.879,1.913-2.334,1.913-4.365c0-1.895-0.691-3.256-2.079-4.078
			c-1.389-0.822-3.585-1.235-6.586-1.235H84.25V57.088z M84.25,65.413v12.894h6.838c2.889,0,5.021-0.552,6.394-1.655
			c1.377-1.107,2.068-2.798,2.068-5.078c0-4.107-2.937-6.16-8.8-6.16H84.25z"/>
	</g>
</g>
</svg>
