<?xml version="1.0" encoding="utf-8"?>
<!-- Generator: Adobe Illustrator 16.0.4, SVG Export Plug-In . SVG Version: 6.00 Build 0)  -->
<!DOCTYPE svg PUBLIC "-//W3C//DTD SVG 1.1//EN" "http://www.w3.org/Graphics/SVG/1.1/DTD/svg11.dtd">
<svg version="1.1" id="Layer_1" xmlns="http://www.w3.org/2000/svg" xmlns:xlink="http://www.w3.org/1999/xlink" x="0px" y="0px"
	 width="180px" height="180px" viewBox="0 0 180 180" enable-background="new 0 0 180 180" xml:space="preserve">
<g>
	<path d="M148.611,30.292c-0.953-0.57-2.377-0.8-3.411-0.526c-8.724,2.298-14.111,3.773-19.816,5.335
		c-4.437,1.216-9.134,2.502-15.84,4.297C84.51,46.097,59.478,52.796,34.446,59.498l-1.374,0.364
		c-1.661,0.439-3.378,0.894-5.057,1.404c-1.658,0.504-2.542,1.854-2.305,3.521c0.238,1.678,1.454,2.676,3.337,2.739l0.117,0.004
		l0.436-0.083c0.33-0.06,0.728-0.132,1.116-0.236c10.823-2.888,21.646-5.779,32.466-8.677c14.212-3.806,25.77-6.938,37.326-10.071
		s23.112-6.265,37.322-10.07c0.934-0.25,1.869-0.491,2.805-0.732c2.156-0.557,4.386-1.132,6.561-1.806
		c0.998-0.312,2.032-1.296,2.46-2.341C150.055,32.537,149.498,30.82,148.611,30.292z"/>
	<path fill-rule="evenodd" clip-rule="evenodd" d="M96.379,53.017c0.468,2.479,1.102,5.866,1.53,8.188
		c1.01,5.501,2.031,10.997,2.999,16.505c0.157,0.894,0.511,1.248,1.415,1.189c0.931-0.064,1.87-0.047,2.804-0.012
		c1.49,0.058,2.132,0.731,2.195,2.232c0.155,3.67,0.155,3.659-3.533,3.654c-7.438-0.008-14.875-0.022-22.311,0.019
		c-1.13,0.007-1.688-0.236-1.512-1.479c0.094-0.668,0.011-1.358,0.021-2.039c0.028-1.666,0.625-2.297,2.307-2.38
		c0.891-0.044,1.787-0.067,2.676-0.008c0.861,0.059,1.207-0.321,1.351-1.124c1.098-6.128,2.337-12.236,3.273-18.392
		C90.104,56.029,93.619,54.74,96.379,53.017z"/>
	<path fill-rule="evenodd" clip-rule="evenodd" d="M84.147,36.342c-0.047,3.142-2.371,5.372-5.563,5.342
		c-3.005-0.026-5.583-2.623-5.503-5.538c0.091-3.231,2.618-5.555,5.986-5.497C81.963,30.697,84.195,33.199,84.147,36.342z"/>
	<path fill-rule="evenodd" clip-rule="evenodd" d="M117.68,27.324c0.01,2.896-2.526,5.436-5.424,5.427
		c-3.18-0.009-5.648-2.405-5.663-5.499c-0.017-3.057,2.528-5.6,5.587-5.586C115.288,21.682,117.668,24.128,117.68,27.324z"/>
	<path fill-rule="evenodd" clip-rule="evenodd" d="M61.764,46.103c-3.023-0.078-5.521-2.646-5.431-5.587
		c0.086-2.924,2.77-5.533,5.656-5.5c2.99,0.033,5.611,2.749,5.519,5.719C67.409,43.923,64.988,46.187,61.764,46.103z"/>
	<path fill-rule="evenodd" clip-rule="evenodd" d="M100.901,31.802c0.023,2.922-2.485,5.479-5.375,5.48
		c-2.984,0.001-5.654-2.534-5.689-5.405c-0.041-3.125,2.461-5.707,5.613-5.796C98.403,25.998,100.877,28.595,100.901,31.802z"/>
	<path fill-rule="evenodd" clip-rule="evenodd" d="M146.069,131.439c-1.989-11.458-4.004-22.911-6.122-34.347
		c-1.121-6.054-4.935-9.09-11.03-9.09c-23.456,0.004-46.914,0.004-70.369,0.016c-6.499,0.002-10.302,3.195-11.447,9.6
		c-1.94,10.847-3.84,21.7-5.821,32.539c-0.377,2.068-0.278,4.024,0.32,6.027c1.151,3.861,2.162,7.764,3.303,11.626
		c1.082,3.666,2.029,7.394,3.443,10.93c1.912,4.792,5.392,7.312,10.896,7.215c11.493-0.205,22.993-0.062,34.492-0.062
		c0,0.006,0,0.01,0,0.016c3.985,0,7.97,0.002,11.955-0.001c7.82-0.005,15.638-0.044,23.456-0.004
		c3.461,0.018,6.182-1.354,8.026-4.208c1.095-1.695,2.119-3.535,2.698-5.453c2.132-7.078,4.096-14.208,6.039-21.343
		C146.204,133.807,146.263,132.556,146.069,131.439z M71.677,128.976c-0.003,2.948-1.038,4.136-3.602,4.14
		c-4.408,0.005-8.817,0.004-13.227-0.004c-2.542-0.004-3.552-1.348-3.073-4.175c1.605-9.54,3.23-19.076,4.867-28.61
		c0.438-2.556,1.198-3.242,3.463-3.251c2.798-0.009,5.597-0.01,8.395,0.002c2.282,0.009,3.174,1.008,3.177,3.569
		c0.008,4.722,0.004,9.443,0.004,14.165C71.681,119.532,71.686,124.253,71.677,128.976z M89.832,152.953
		c-0.001,2.649-0.961,3.928-2.968,3.968c-1.481,0.029-2.962,0.024-4.441,0.002c-1.997-0.031-2.905-1.212-2.91-3.84
		c-0.011-8.771-0.003-17.541-0.003-26.312c-0.002-8.723-0.006-17.445,0.001-26.167c0.001-2.554,0.724-3.508,2.661-3.526
		c1.702-0.017,3.405-0.024,5.107,0.003c1.776,0.03,2.553,1.063,2.553,3.394C89.837,117.965,89.838,135.459,89.832,152.953z
		 M107.368,152.721c-0.001,2.981-0.854,4.175-2.98,4.204c-1.185,0.016-2.372-0.013-3.558,0c-2.082,0.02-2.92-1.129-2.921-4.071
		c-0.005-8.721-0.003-17.441-0.003-26.16c0-8.721-0.002-17.442,0.003-26.163c0-2.453,0.675-3.431,2.384-3.452
		c1.56-0.02,3.119-0.025,4.68,0.002c1.686,0.03,2.395,1.062,2.396,3.464C107.371,117.937,107.371,135.329,107.368,152.721z
		 M132.449,133.102c-4.906,0.042-9.812,0.032-14.718,0.005c-2.051-0.013-3.125-1.307-3.139-3.764
		c-0.024-4.864-0.007-9.731-0.007-14.597c0-4.721-0.007-9.442,0.003-14.162c0.004-2.58,0.848-3.498,3.214-3.507
		c3.031-0.014,6.065-0.015,9.098,0.002c1.97,0.012,2.902,0.742,3.291,2.835c1.452,7.827,2.844,15.665,4.262,23.498
		c0.342,1.888,0.705,3.771,1.039,5.661C135.938,131.615,134.87,133.082,132.449,133.102z"/>
</g>
</svg>
