<?xml version="1.0" encoding="utf-8"?>
<!-- Generator: Adobe Illustrator 16.0.4, SVG Export Plug-In . SVG Version: 6.00 Build 0)  -->
<!DOCTYPE svg PUBLIC "-//W3C//DTD SVG 1.1//EN" "http://www.w3.org/Graphics/SVG/1.1/DTD/svg11.dtd">
<svg version="1.1" id="Layer_1" xmlns="http://www.w3.org/2000/svg" xmlns:xlink="http://www.w3.org/1999/xlink" x="0px" y="0px"
	 width="180px" height="180px" viewBox="0 0 180 180" enable-background="new 0 0 180 180" xml:space="preserve">
<g>
	<g>
		<path d="M145.163,161.319c-1.307-1.035-2.705-1.985-4.062-2.972c-5.017-3.651-10.144-7.201-15.051-10.989
			c5.99-0.656,10.693-5.767,10.693-11.925v-75.75c0-6.6-5.4-12-12-12H55.257c-6.6,0-12,5.4-12,12v75.75
			c0,6.158,4.703,11.269,10.694,11.925c-4.908,3.788-10.035,7.338-15.052,10.989c-1.356,0.986-2.755,1.937-4.062,2.972
			c-0.806,0.643-1.772,1.6-1.405,2.729c0.173,0.543,0.578,0.988,0.991,1.37c0.739,0.68,1.276,0.578,2.25,0.578
			c1.709,0,104.944,0,106.653,0c0.974,0,1.511,0.102,2.25-0.578c0.413-0.382,0.818-0.827,0.991-1.37
			C146.936,162.919,145.969,161.962,145.163,161.319z M61.027,135.539c-4.881-0.116-8.53-4.017-8.464-8.987
			c0.077-4.668,4.033-8.427,8.822-8.354c4.794,0.076,8.679,4.023,8.597,8.76C69.887,131.809,65.893,135.631,61.027,135.539z
			 M85.902,107.613c0,1.104-0.896,2-2,2H52.696c-1.104,0-2-0.896-2-2V74.071c0-1.104,0.896-2,2-2h31.206c1.104,0,2,0.896,2,2
			V107.613z M94.148,107.613V74.071c0-1.104,0.896-2,2-2h31.195c1.104,0,2,0.896,2,2v33.542c0,1.104-0.896,2-2,2H96.148
			C95.044,109.613,94.148,108.718,94.148,107.613z M76.609,60.399v-1.542c0-1.104,0.896-2,2-2h23.195c1.104,0,2,0.896,2,2v1.542
			c0,1.104-0.896,2-2,2H78.609C77.505,62.399,76.609,61.504,76.609,60.399z M118.755,135.525c-4.775,0.009-8.6-3.783-8.611-8.541
			c-0.015-5.021,3.78-8.817,8.757-8.791c4.764,0,8.562,3.843,8.578,8.591C127.483,131.746,123.705,135.513,118.755,135.525z"/>
	</g>
	<g>
		<path d="M160.062,165.996h-8v-88.01c0-27.019-21.981-49-49-49H76.938c-27.019,0-49,21.981-49,49v88.01h-8v-88.01
			c0-31.43,25.57-57,57-57h26.125c31.43,0,57,25.57,57,57V165.996z"/>
	</g>
</g>
</svg>
