<?xml version="1.0" encoding="utf-8"?>
<!-- Generator: Adobe Illustrator 16.0.4, SVG Export Plug-In . SVG Version: 6.00 Build 0)  -->
<!DOCTYPE svg PUBLIC "-//W3C//DTD SVG 1.1//EN" "http://www.w3.org/Graphics/SVG/1.1/DTD/svg11.dtd">
<svg version="1.1" id="Layer_1" xmlns="http://www.w3.org/2000/svg" xmlns:xlink="http://www.w3.org/1999/xlink" x="0px" y="0px"
	 width="180px" height="180px" viewBox="0 0 180 180" enable-background="new 0 0 180 180" xml:space="preserve">
<g>
	<path d="M98.149,27.188l-1.889-3.466c-0.617-1.133-2.006-2.06-3.086-2.06h-6.35c-1.08,0-2.469,0.927-3.086,2.06l-1.889,3.466
		H98.149z"/>
	<path d="M125.045,29.933h-70.09v4.977h3.81v9.75h62.471v-9.75h3.81V29.933z M102.598,39.123c0,1.104-0.896,2-2,2H79.402
		c-1.104,0-2-0.896-2-2v-1.542c0-1.104,0.896-2,2-2h21.195c1.104,0,2,0.896,2,2V39.123z"/>
	<path d="M143.353,134.921c-1.368,0-2.487-1.125-2.487-2.5V71.659c0-1.375,1.119-2.5,2.488-2.5c1.368,0,2.487,1.125,2.487,2.5
		l-0.001,60.762C145.84,133.796,144.721,134.921,143.353,134.921z"/>
	<path d="M36.768,134.921c-1.368,0-2.487-1.125-2.487-2.5V71.659c0-1.375,1.119-2.5,2.487-2.5c1.369,0,2.488,1.125,2.488,2.5
		l-0.001,60.762C39.255,133.796,38.136,134.921,36.768,134.921z"/>
	<g>
		<path d="M136.744,147.859v-7.392H43.256v7.392H32.205v4.977h14.051v-4.977h16.104c-3.543,3.599-7.224,7-10.832,10.488
			c-1.021,0.986-2.073,1.937-3.057,2.972c-0.607,0.643-1.335,1.6-1.059,2.729c0.131,0.543,0.436,0.988,0.747,1.37
			c0.556,0.68,0.96,0.578,1.693,0.578c1.287,0,79.008,0,80.295,0c0.733,0,1.138,0.102,1.694-0.578
			c0.312-0.382,0.615-0.827,0.746-1.37c0.276-1.129-0.451-2.086-1.059-2.729c-0.983-1.035-2.036-1.985-3.057-2.972
			c-3.608-3.488-7.289-6.89-10.831-10.488h16.103v4.977h14.051v-4.977H136.744z"/>
		<path d="M136.744,46.946H43.256v61.488h93.488V46.946z M73.141,102.613H48.27V63.071c0-1.104,1.239-2.305,2.24-3
			c4.504-3.128,10.364-3.993,15.588-2.324c1.557,0.497,3.168,1.187,4.57,2.028c1.373,0.824,2.473,1.881,2.473,3.296V102.613z
			 M102.436,102.613H77.564V63.071c0-1.104,1.239-2.305,2.24-3c4.504-3.128,10.364-3.993,15.588-2.324
			c1.557,0.497,3.168,1.187,4.57,2.028c1.373,0.824,2.473,1.881,2.473,3.296V102.613z M131.73,102.613h-24.871V63.071
			c0-1.104,1.239-2.305,2.24-3c4.504-3.128,10.364-3.993,15.588-2.324c1.557,0.497,3.168,1.187,4.57,2.028
			c1.373,0.824,2.473,1.881,2.473,3.296V102.613z"/>
		<path d="M136.744,112.435H43.256v24.033h93.488V112.435z M89.775,132.316c-4.468-0.106-7.806-3.675-7.745-8.225
			c0.071-4.271,3.689-7.711,8.072-7.644c4.388,0.067,7.943,3.681,7.867,8.016C97.884,128.902,94.227,132.4,89.775,132.316z"/>
	</g>
</g>
</svg>
