<?xml version="1.0" encoding="utf-8"?>
<!-- Generator: Adobe Illustrator 16.0.4, SVG Export Plug-In . SVG Version: 6.00 Build 0)  -->
<!DOCTYPE svg PUBLIC "-//W3C//DTD SVG 1.1//EN" "http://www.w3.org/Graphics/SVG/1.1/DTD/svg11.dtd">
<svg version="1.1" id="Layer_1" xmlns="http://www.w3.org/2000/svg" xmlns:xlink="http://www.w3.org/1999/xlink" x="0px" y="0px"
	 width="180px" height="180px" viewBox="0 0 180 180" enable-background="new 0 0 180 180" xml:space="preserve">
<g>
	<path d="M147.162,161.319c-1.307-1.035-2.705-1.985-4.061-2.972c-5.018-3.651-10.145-7.201-15.051-10.989
		c5.99-0.656,10.693-5.767,10.693-11.925v-74.75c0-6.6-5.4-12-12-12h-25.155l8.622-17.934c0.137-0.236,0.195-0.495,0.195-0.75h4.701
		c0.281,0.026,0.865,0.368,1.012,0.578l3.77,6.693c0.734,1.305,2.092,2.038,3.49,2.038c0.664,0,1.338-0.166,1.959-0.516
		c1.924-1.084,2.605-3.523,1.521-5.448l-3.77-6.693c-1.518-2.695-4.863-4.651-7.957-4.651H64.865c-3.092,0-6.439,1.956-7.957,4.651
		l-3.77,6.693c-1.084,1.925-0.402,4.364,1.523,5.448s4.363,0.403,5.447-1.522l3.756-6.672c0.162-0.231,0.746-0.573,1-0.599h4.729
		c0,0.255,0.059,0.513,0.195,0.75l8.622,17.933H53.256c-6.6,0-12,5.4-12,12v74.75c0,6.158,4.703,11.269,10.695,11.925
		c-4.908,3.788-10.035,7.338-15.053,10.989c-1.355,0.986-2.754,1.937-4.061,2.972c-0.807,0.643-1.773,1.6-1.406,2.729
		c0.174,0.543,0.578,0.988,0.992,1.37c0.738,0.68,1.275,0.578,2.25,0.578c1.709,0,108.943,0,110.652,0
		c0.975,0,1.512,0.102,2.25-0.578c0.414-0.382,0.818-0.827,0.992-1.37C148.936,162.919,147.969,161.962,147.162,161.319z
		 M88.361,48.684c0-0.255-9.815-18.683-9.815-18.683L101.454,30c0,0-9.817,18.429-9.817,18.684H88.361z M60.764,135.539
		c-4.881-0.116-8.529-4.017-8.463-8.987c0.076-4.668,4.033-8.427,8.822-8.354c4.793,0.076,8.678,4.023,8.596,8.76
		C69.623,131.809,65.629,135.631,60.764,135.539z M118.492,135.525c-4.775,0.009-8.6-3.783-8.611-8.541
		c-0.016-5.021,3.779-8.817,8.756-8.791c4.764,0,8.562,3.843,8.578,8.591C127.221,131.746,123.441,135.513,118.492,135.525z
		 M126.08,107.613H53.434c-1.105,0-2-0.896-2-2V66.071c0-1.104,0.895-2,2-2h72.646c1.105,0,2,0.896,2,2v39.542
		C128.08,106.718,127.186,107.613,126.08,107.613z"/>
</g>
</svg>
