<svg width="0" height="0" style="position:absolute"><symbol viewBox="0 0 180 180" id="icon-clock"><path d="M90 30.178c32.983 0 59.822 26.84 59.822 59.822S122.983 149.822 90 149.822c-32.982 0-59.822-26.84-59.822-59.822S57.018 30.178 90 30.178M90 14c-42.053 0-76 33.947-76 76 0 42.054 33.947 76 76 76 42.054 0 76-33.946 76-76 0-42.053-33.946-76-76-76z"/><path d="M119.197 86.268H95.254V58.436c0-4.277-3.501-7.777-7.777-7.777-4.278 0-7.778 3.5-7.778 7.777v35.608c0 4.278 3.5 7.778 7.778 7.778h31.721c4.276 0 7.776-3.5 7.776-7.778 0-4.276-3.5-7.776-7.777-7.776z"/></symbol><symbol viewBox="0 0 180 180" id="icon-dot"><path d="M90 14c-42.053 0-76 33.947-76 76 0 42.054 33.947 76 76 76 42.054 0 76-33.946 76-76 0-42.053-33.946-76-76-76z"/><path fill="#FFF" d="M90 22.365c37.29 0 67.635 30.346 67.635 67.635 0 37.29-30.345 67.635-67.635 67.635S22.365 127.29 22.365 90c0-37.289 30.345-67.635 67.635-67.635"/></symbol><symbol viewBox="0 0 180 180" id="icon-maneuver-00"/><symbol viewBox="0 0 180 180" id="icon-maneuver-01"><path d="M139.183 59.363L88.14 11.69 40.43 62.817a7.999 7.999 0 0 0 .391 11.307 7.97 7.97 0 0 0 5.456 2.151 7.98 7.98 0 0 0 5.851-2.542l28.486-30.525V159a8 8 0 0 0 16 0V41.498l31.647 29.559a8 8 0 0 0 10.922-11.694z"/></symbol><symbol viewBox="0 0 180 180" id="icon-maneuver-02"><path d="M117.181 42.357a8 8 0 0 0-11.307.391 7.999 7.999 0 0 0 .391 11.307l28.521 26.617H25a8 8 0 0 0 0 16h111.508l-27.701 29.662a7.999 7.999 0 0 0 .387 11.307 7.971 7.971 0 0 0 5.458 2.153c2.14 0 4.273-.853 5.849-2.54l45.81-49.05-49.13-45.847z"/></symbol><symbol viewBox="0 0 180 180" id="icon-maneuver-03"><path d="M155 80.672H45.213l28.522-26.617a8 8 0 0 0-10.916-11.698L13.691 88.204l45.809 49.05a7.973 7.973 0 0 0 5.849 2.54 8 8 0 0 0 5.845-13.46L43.491 96.672H155a8 8 0 0 0 0-16z"/></symbol><symbol viewBox="0 0 180 180" id="icon-maneuver-04"><path d="M89.999 14c-24.941 0-45.232 21.248-45.232 47.366 0 12.876 5.857 24.851 11.025 35.416a352.506 352.506 0 0 1 2.674 5.545c8.044 17.249 25.822 59.57 26.001 59.995A6.002 6.002 0 0 0 90 166a6.003 6.003 0 0 0 5.436-3.462c.208-.445 20.873-44.718 28.013-60.235 6.323-13.72 11.785-25.568 11.785-40.937C135.233 35.248 114.941 14 89.999 14zm0 25.216c7.72 0 14 6.282 14 14.004 0 7.718-6.28 13.997-14 13.997s-14-6.279-14-13.997c0-7.722 6.28-14.004 14-14.004z"/></symbol><symbol viewBox="0 0 180 180" id="icon-maneuver-05"><path d="M121.735 14c-24.941 0-45.232 21.249-45.232 47.366 0 12.876 5.857 24.851 11.025 35.416.928 1.897 1.834 3.749 2.674 5.545 8.044 17.249 25.822 59.57 26.001 59.995a6.003 6.003 0 0 0 5.415 3.677l.118.001a6.003 6.003 0 0 0 5.437-3.462c.208-.445 20.873-44.718 28.012-60.235 6.324-13.719 11.785-25.568 11.785-40.937C166.969 35.249 146.677 14 121.735 14zm0 25.216c7.72 0 14 6.282 14 14.004 0 7.718-6.28 13.997-14 13.997s-14-6.279-14-13.997c0-7.722 6.28-14.004 14-14.004z"/><path fill="#010101" d="M50.255 87.211a6 6 0 1 0-8.192 8.768L57.99 110.86H19.032a6 6 0 0 0 0 12h40.342L43.61 139.719a6 6 0 1 0 8.765 8.196l29.307-31.34-31.427-29.364z"/></symbol><symbol viewBox="0 0 180 180" id="icon-maneuver-06"><path d="M58.267 14c-24.943 0-45.235 21.249-45.235 47.366 0 15.365 5.461 27.215 11.784 40.933 7.141 15.521 27.807 59.794 28.015 60.239A6 6 0 0 0 58.267 166l.118-.001a6 6 0 0 0 5.415-3.677c.179-.425 17.954-42.745 25.999-59.992.842-1.801 1.749-3.655 2.677-5.553 5.167-10.563 11.023-22.537 11.023-35.411C103.498 35.249 83.207 14 58.267 14zm0 25.216c7.719 0 14 6.282 14 14.003 0 7.718-6.28 13.997-14 13.997s-14-6.279-14-13.997c0-7.721 6.28-14.003 14-14.003z"/><path fill="#010101" d="M160.969 110.861H122.01l15.928-14.882a6 6 0 0 0-8.192-8.768l-31.428 29.364 29.308 31.341a5.984 5.984 0 0 0 4.384 1.902 6 6 0 0 0 4.381-10.098l-15.765-16.858h40.343a6 6 0 0 0 0-12.001z"/></symbol><symbol viewBox="0 0 180 180" id="icon-maneuver-07"><path d="M139.183 59.363L88.14 11.69 40.43 62.817a7.999 7.999 0 0 0 .391 11.307 7.97 7.97 0 0 0 5.456 2.151 7.98 7.98 0 0 0 5.851-2.542l28.486-30.525V159a8 8 0 0 0 16 0V41.498l31.647 29.559a8 8 0 0 0 10.922-11.694z"/></symbol><symbol viewBox="0 0 180 180" id="icon-maneuver-08"><path d="M139.183 59.363L88.14 11.69 40.43 62.817a7.999 7.999 0 0 0 .391 11.307 7.97 7.97 0 0 0 5.456 2.151 7.98 7.98 0 0 0 5.851-2.542l28.486-30.525V159a8 8 0 0 0 16 0V41.498l31.647 29.559a8 8 0 0 0 10.922-11.694z"/></symbol><symbol viewBox="0 0 180 180" id="icon-maneuver-09"><path d="M95.03 12.271a8 8 0 0 0-4.128 15.459l31.007 8.281-93.254 50.735V160a8 8 0 0 0 16 0V96.256l86.146-46.869-8.681 32.448a8 8 0 1 0 15.456 4.134l15.566-58.179L95.03 12.271z"/></symbol><symbol viewBox="0 0 180 180" id="icon-maneuver-10"><path d="M114.589 14.151a8 8 0 0 0-10.917 11.698l23.345 21.788H24.762V160a8 8 0 0 0 16 0V63.637h87.992l-22.89 24.508a8 8 0 0 0 11.693 10.922l40.99-43.888-43.958-41.028z"/></symbol><symbol viewBox="0 0 180 180" id="icon-maneuver-11"><path d="M149.762 52.811c-.449-4.396-4.391-7.593-8.772-7.144a8 8 0 0 0-7.144 8.773l3.547 34.667L42.861 12H24.825v148a8 8 0 0 0 16 0V30.986l84.918 69.265-31.793 3.24a8 8 0 0 0 1.621 15.917l60.377-6.152-6.186-60.445z"/></symbol><symbol viewBox="0 0 180 180" id="icon-maneuver-12"><path d="M152.734 62.208a7.997 7.997 0 0 0-11.307.391L119.587 86V12H24.725v148a8 8 0 0 0 16 0V28h62.862v59.759L79 64.797a7.996 7.996 0 0 0-11.307.387 8 8 0 0 0 .386 11.307l43.956 41.051 41.089-44.026a8 8 0 0 0-.39-11.308z"/></symbol><symbol viewBox="0 0 180 180" id="icon-maneuver-13"><path d="M60.413 12v74l-21.84-23.401a8 8 0 1 0-11.697 10.916l41.089 44.026L111.92 76.49a8 8 0 0 0 .386-11.307 7.999 7.999 0 0 0-11.307-.387L76.413 87.759V28h62.862v132a8 8 0 0 0 16 0V12H60.413z"/></symbol><symbol viewBox="0 0 180 180" id="icon-maneuver-14"><path d="M137.139 12L42.607 89.106l3.547-34.667a8 8 0 0 0-7.144-8.773c-4.398-.445-8.323 2.749-8.772 7.144l-6.187 60.446 60.377 6.152a8.001 8.001 0 0 0 1.621-15.917l-31.793-3.24 84.918-69.265V160a8 8 0 0 0 16 0V12h-18.035z"/></symbol><symbol viewBox="0 0 180 180" id="icon-maneuver-15"><path d="M52.982 47.637l23.345-21.788A8 8 0 1 0 65.41 14.152L21.453 55.178l40.989 43.888a7.977 7.977 0 0 0 5.849 2.54 8 8 0 0 0 5.845-13.46L51.245 63.637h87.993V160a8 8 0 0 0 16 0V47.637H52.982z"/></symbol><symbol viewBox="0 0 180 180" id="icon-maneuver-16"><path d="M58.091 36.011l31.008-8.282a8 8 0 0 0-4.128-15.458L26.858 27.792 42.424 85.97a7.988 7.988 0 0 0 9.796 5.66 8 8 0 0 0 5.66-9.796l-8.681-32.446 86.146 46.868V160a8 8 0 0 0 16 0V86.746L58.091 36.011z"/></symbol><symbol viewBox="0 0 180 180" id="icon-maneuver-17"><path d="M139.183 59.363L88.14 11.69 40.43 62.817a7.999 7.999 0 0 0 .391 11.307 7.97 7.97 0 0 0 5.456 2.151 7.98 7.98 0 0 0 5.851-2.542l28.486-30.525V159a8 8 0 0 0 16 0V41.498l31.647 29.559a8 8 0 0 0 10.922-11.694z"/></symbol><symbol viewBox="0 0 180 180" id="icon-maneuver-18"><path d="M29.377 13h14v141h-14z" opacity=".4"/><path d="M95.308 12.271a7.997 7.997 0 0 0-9.794 5.665 8 8 0 0 0 5.665 9.793l31.008 8.281-93.251 50.736V160a8 8 0 0 0 16 0V96.255l86.144-46.869-8.681 32.447a8 8 0 0 0 5.661 9.795 7.975 7.975 0 0 0 2.072.274 8.005 8.005 0 0 0 7.724-5.935l15.564-58.178-58.112-15.518z"/></symbol><symbol viewBox="0 0 180 180" id="icon-maneuver-19"><path d="M136.9 13h14v141h-14z" opacity=".4"/><path d="M58.091 36.01l31.008-8.281a8 8 0 0 0 5.665-9.793 7.997 7.997 0 0 0-9.794-5.665l-58.112 15.52 15.565 58.178a8.003 8.003 0 0 0 7.723 5.935c.684 0 1.38-.088 2.072-.274a7.999 7.999 0 0 0 5.661-9.795l-8.681-32.447 86.144 46.869V160a8 8 0 0 0 16 0V86.746L58.091 36.01z"/></symbol><symbol viewBox="0 0 180 180" id="icon-maneuver-20"><path d="M29.377 13h14v141h-14z" opacity=".4"/><path d="M95.308 12.271a7.997 7.997 0 0 0-9.794 5.665 8 8 0 0 0 5.665 9.793l31.008 8.281-93.251 50.736V160a8 8 0 0 0 16 0V96.255l86.144-46.869-8.681 32.447a8 8 0 0 0 5.661 9.795 7.975 7.975 0 0 0 2.072.274 8.005 8.005 0 0 0 7.724-5.935l15.564-58.178-58.112-15.518z"/></symbol><symbol viewBox="0 0 180 180" id="icon-maneuver-21"><path d="M136.9 13h14v141h-14z" opacity=".4"/><path d="M58.091 36.01l31.008-8.281a8 8 0 0 0 5.665-9.793 7.997 7.997 0 0 0-9.794-5.665l-58.112 15.52 15.565 58.178a8.003 8.003 0 0 0 7.723 5.935c.684 0 1.38-.088 2.072-.274a7.999 7.999 0 0 0 5.661-9.795l-8.681-32.447 86.144 46.869V160a8 8 0 0 0 16 0V86.746L58.091 36.01z"/></symbol><symbol viewBox="0 0 180 180" id="icon-maneuver-22"><path d="M139.183 59.363L88.14 11.69 40.43 62.817a7.999 7.999 0 0 0 .391 11.307 7.97 7.97 0 0 0 5.456 2.151 7.98 7.98 0 0 0 5.851-2.542l28.486-30.525V159a8 8 0 0 0 16 0V41.498l31.647 29.559a8 8 0 0 0 10.922-11.694z"/></symbol><symbol viewBox="0 0 180 180" id="icon-maneuver-23"><path d="M29.377 13h14v141h-14z" opacity=".4"/><path d="M95.308 12.271a7.997 7.997 0 0 0-9.794 5.665 8 8 0 0 0 5.665 9.793l31.008 8.281-93.251 50.736V160a8 8 0 0 0 16 0V96.255l86.144-46.869-8.681 32.447a8 8 0 0 0 5.661 9.795 7.975 7.975 0 0 0 2.072.274 8.005 8.005 0 0 0 7.724-5.935l15.564-58.178-58.112-15.518z"/></symbol><symbol viewBox="0 0 180 180" id="icon-maneuver-24"><path d="M136.9 13h14v141h-14z" opacity=".4"/><path d="M58.091 36.01l31.008-8.281a8 8 0 0 0 5.665-9.793 7.997 7.997 0 0 0-9.794-5.665l-58.112 15.52 15.565 58.178a8.003 8.003 0 0 0 7.723 5.935c.684 0 1.38-.088 2.072-.274a7.999 7.999 0 0 0 5.661-9.795l-8.681-32.447 86.144 46.869V160a8 8 0 0 0 16 0V86.746L58.091 36.01z"/></symbol><symbol viewBox="0 0 180 180" id="icon-maneuver-25"><path d="M155.863 151c-30.059 0-54.539-24.52-54.881-54.787.004-.114.018-.226.018-.34V46.656l23.163 24.821a7.978 7.978 0 0 0 5.851 2.542 8 8 0 0 0 5.847-13.458L91.187 12.69 43.399 57.329a8 8 0 1 0 10.922 11.692L79 45.969v49.904c0 .106.013.209.016.314C78.688 126.466 54.202 151 24.136 151a8 8 0 0 0 0 16c29.845 0 55.423-18.686 65.863-45.047C100.438 148.314 126.018 167 155.863 167a8 8 0 0 0 0-16z"/></symbol><symbol viewBox="0 0 180 180" id="icon-maneuver-26"><path opacity=".4" d="M153.001 64.289a7.002 7.002 0 0 0-8.873-4.391l-21.11 7.135c-5.315-7.015-13.083-12.071-22.018-13.878V27.003a7 7 0 1 0-14 0v26.045c-14.745 2.729-26.432 14.277-29.353 28.955H34a7 7 0 1 0 0 14h23.581a36.476 36.476 0 0 0 3.726 10.55l-17.519 10.114a7 7 0 0 0 6.999 12.125l19.518-11.268c6.361 5.262 14.516 8.428 23.396 8.428 20.272 0 36.766-16.492 36.766-36.764 0-3.275-.437-6.449-1.244-9.474l19.388-6.553a7 7 0 0 0 4.39-8.872zm-59.3 47.663c-12.552 0-22.764-10.212-22.764-22.764s10.212-22.764 22.764-22.764c12.553 0 22.766 10.212 22.766 22.764s-10.213 22.764-22.766 22.764z"/><path d="M150.315 99.885L128.5 64.863 93.566 86.642a8 8 0 0 0 8.464 13.578l13.258-8.266c-1.262 10.849-9.841 18.998-20.588 18.998a7.995 7.995 0 0 0-7 4.13 7.967 7.967 0 0 0-1.7 4.921v34a8 8 0 0 0 16 0v-27.77c14.143-2.817 25.137-13.71 28.438-27.999l6.298 10.109a7.991 7.991 0 0 0 6.798 3.771 7.963 7.963 0 0 0 4.222-1.211 7.997 7.997 0 0 0 2.559-11.018z"/></symbol><symbol viewBox="0 0 180 180" id="icon-maneuver-27"><path d="M93 61.003a4 4 0 0 1-4-4v-28a4 4 0 0 1 8 0v28a4 4 0 0 1-4 4zM93 163.003a4 4 0 0 1-4-4v-27a4 4 0 0 1 8 0v27a4 4 0 0 1-4 4z" opacity=".4"/><path opacity=".4" d="M152.795 69.75a6.996 6.996 0 0 0-8.873-4.389l-21.546 7.283c-6.808-9.028-17.619-14.878-29.772-14.878-18.495 0-33.88 13.546-36.772 31.236H34a7 7 0 1 0 0 14h22.202a37.045 37.045 0 0 0 3.615 9.737L41.905 123.08a7 7 0 0 0 7 12.125l19.918-11.499c6.458 5.365 14.748 8.597 23.78 8.597 20.551 0 37.271-16.718 37.271-37.268a37.15 37.15 0 0 0-1.292-9.712l19.824-6.701a6.998 6.998 0 0 0 4.389-8.872zm-60.191 48.554c-6.942 0-13.181-3.061-17.447-7.898l-.062-.072c-3.581-4.093-5.758-9.443-5.758-15.297 0-12.831 10.438-23.27 23.268-23.27 12.831 0 23.271 10.438 23.271 23.27-.002 12.829-10.441 23.267-23.272 23.267z"/><path d="M130.874 95.036c0-18.217-12.799-33.491-29.874-37.33V41.371l10.704 10.01a7.996 7.996 0 0 0 11.307-.379 7.998 7.998 0 0 0-.379-11.307l-30.48-28.506-28.557 30.56a8 8 0 0 0 .384 11.307 7.969 7.969 0 0 0 5.46 2.155 7.98 7.98 0 0 0 5.847-2.538L85 42.276v18.727c0 .363.032.718.079 1.067a7.981 7.981 0 0 0-.476 2.696 8 8 0 0 0 8 8c12.28 0 22.271 9.99 22.271 22.27 0 12.007-8.641 21.508-19.91 22.22a7.996 7.996 0 0 0-1.964-.253 8 8 0 0 0-8 8v34a8 8 0 0 0 16 0v-26.427c17.238-3.431 29.874-18.69 29.874-37.54z"/></symbol><symbol viewBox="0 0 180 180" id="icon-maneuver-28"><path fill-rule="evenodd" clip-rule="evenodd" d="M107.629 157.761c-2.809 5.414-7.568 8.032-13.645 8.119-6.367.101-11.348-2.518-14.336-8.19-1.461 3.504-4.277 5.651-7.785 7.067-4.225 1.672-8.533 1.643-12.732.029-4.91-1.878-6.924-5.676-7.275-10.398-.049-.653 0-1.332 0-2.174 2.799 3.773 6.973 4.596 11.24 5.067 3.285.369 6.594.131 9.77-.784 2.773-.815 5.348-1.904 6.836-4.597 1.475 2.649 3.984 3.812 6.717 4.545 5.053 1.371 10.141 1.323 15.166-.192 2.883-.876 4.385-1.97 6.049-4.273 2.012 3.289 5.441 4.355 9.041 4.992 4.596.815 9.168.594 13.592-.984 2.174-.775 4.08-1.883 5.238-4.038 2.676 4.021 7.033 4.895 11.49 5.332 4.48.422 8.934.012 12.965-2.104 1.27-.671 2.307-1.721 3.318-2.504.74 5.454-2.273 10.433-7.307 12.179-5.504 1.896-10.748 1.411-15.635-1.677-2.217-1.425-3.105-2.47-4.746-5.398-2.848 5.445-7.729 8.09-13.951 8.112-6.237.012-11.147-2.598-14.01-8.129z" opacity=".4"/><path d="M36.776 80.891a5.999 5.999 0 0 1-4.381-10.098L52.812 48.96 30.897 28.483a6 6 0 1 1 8.193-8.767l30.687 28.672-28.618 30.601a5.981 5.981 0 0 1-4.383 1.902z"/><path d="M56.807 54.674H16.611a6 6 0 0 1 0-12h40.195a6 6 0 0 1 .001 12z"/><path fill-rule="evenodd" clip-rule="evenodd" d="M164.143 96.956l-10.366-5.14-4.88-24.052a5.507 5.507 0 0 0-3.345-4.012l-8.422-3.375-2.11-19.589a5.5 5.5 0 0 0-4.301-4.786l-7.92-1.721v-14.51a5.5 5.5 0 0 0-5.5-5.5H96.311a5.5 5.5 0 0 0-5.5 5.5v14.51l-7.92 1.721a5.503 5.503 0 0 0-4.301 4.785l-2.112 19.59-8.42 3.375a5.501 5.501 0 0 0-3.345 4.012l-4.888 24.093-10.174 5.113a5.5 5.5 0 0 0-2.759 6.62l10.707 32.81a5.5 5.5 0 0 0 .837 1.605c2.725 3.613 5.974 7.164 13.015 7.456.165.006.339.01.523.01 1.098 0 3.197-.148 5.558-1.076 3.426 2.967 8.404 4.633 14.256 4.633 4.634 0 10.594-1.183 15.123-4.245 4.528 3.062 10.488 4.245 15.122 4.245 5.852 0 10.83-1.667 14.256-4.634a15.47 15.47 0 0 0 5.557 1.077c.185 0 .359-.004.532-.011 7.036-.291 10.284-3.843 13.007-7.457a5.503 5.503 0 0 0 .836-1.604l10.707-32.81a5.5 5.5 0 0 0-2.785-6.633zm-55.161-27.347a5.494 5.494 0 0 0-4.913.014L72.323 85.576l2.58-12.717 8.734-3.5a5.502 5.502 0 0 0 3.423-4.516l2.041-18.934 8.377-1.819a5.475 5.475 0 0 0 1.857-.793h14.938a5.492 5.492 0 0 0 1.857.793l8.376 1.819 2.04 18.933a5.505 5.505 0 0 0 3.423 4.517l8.736 3.501 2.591 12.77-32.314-16.021z"/></symbol><symbol viewBox="0 0 180 180" id="icon-maneuver-29"><path fill-rule="evenodd" clip-rule="evenodd" d="M107.629 157.761c-2.809 5.414-7.568 8.032-13.645 8.119-6.367.101-11.348-2.518-14.336-8.19-1.461 3.504-4.277 5.651-7.785 7.067-4.225 1.672-8.533 1.643-12.732.029-4.91-1.878-6.924-5.676-7.275-10.398-.049-.653 0-1.332 0-2.174 2.799 3.773 6.973 4.596 11.24 5.067 3.285.369 6.594.131 9.77-.784 2.773-.815 5.348-1.904 6.836-4.597 1.475 2.649 3.984 3.812 6.717 4.545 5.053 1.371 10.141 1.323 15.166-.192 2.883-.876 4.385-1.97 6.049-4.273 2.012 3.289 5.441 4.355 9.041 4.992 4.596.815 9.168.594 13.592-.984 2.174-.775 4.08-1.883 5.238-4.038 2.676 4.021 7.033 4.895 11.49 5.332 4.48.422 8.934.012 12.965-2.104 1.27-.671 2.307-1.721 3.318-2.504.74 5.454-2.273 10.433-7.307 12.179-5.504 1.896-10.748 1.411-15.635-1.677-2.217-1.425-3.105-2.47-4.746-5.398-2.848 5.445-7.729 8.09-13.951 8.112-6.237.012-11.147-2.598-14.01-8.129z" opacity=".4"/><path d="M41.13 80.891a5.986 5.986 0 0 1-4.383-1.901L8.129 48.388l30.687-28.672a6 6 0 0 1 8.193 8.767L25.094 48.96l20.417 21.832a5.999 5.999 0 0 1-4.381 10.099z"/><path d="M61.295 54.674H21.1a6 6 0 0 1 0-12h40.195a6 6 0 0 1 0 12z"/><path fill-rule="evenodd" clip-rule="evenodd" d="M164.143 96.956l-10.366-5.14-4.88-24.052a5.507 5.507 0 0 0-3.345-4.012l-8.422-3.375-2.11-19.589a5.5 5.5 0 0 0-4.301-4.786l-7.92-1.721v-14.51a5.5 5.5 0 0 0-5.5-5.5H96.311a5.5 5.5 0 0 0-5.5 5.5v14.51l-7.92 1.721a5.503 5.503 0 0 0-4.301 4.785l-2.112 19.59-8.42 3.375a5.501 5.501 0 0 0-3.345 4.012l-4.888 24.093-10.174 5.113a5.5 5.5 0 0 0-2.759 6.62l10.707 32.81a5.5 5.5 0 0 0 .837 1.605c2.725 3.613 5.974 7.164 13.015 7.456.165.006.339.01.523.01 1.098 0 3.197-.148 5.558-1.076 3.426 2.967 8.404 4.633 14.256 4.633 4.634 0 10.594-1.183 15.123-4.245 4.528 3.062 10.488 4.245 15.122 4.245 5.852 0 10.83-1.667 14.256-4.634a15.47 15.47 0 0 0 5.557 1.077c.185 0 .359-.004.532-.011 7.036-.291 10.284-3.843 13.007-7.457a5.503 5.503 0 0 0 .836-1.604l10.707-32.81a5.5 5.5 0 0 0-2.785-6.633zm-55.161-27.347a5.494 5.494 0 0 0-4.913.014L72.324 85.576l2.579-12.717 8.734-3.5a5.502 5.502 0 0 0 3.423-4.516l2.041-18.934 8.377-1.819a5.475 5.475 0 0 0 1.857-.793h14.938a5.492 5.492 0 0 0 1.857.793l8.376 1.819 2.04 18.933a5.505 5.505 0 0 0 3.423 4.517l8.736 3.501 2.591 12.77-32.314-16.021z"/></symbol><symbol viewBox="0 0 180 180" id="icon-mode-auto"><path d="M156.145 98.559c0-7.868-6.439-14.308-14.308-14.308h-2.766l-6.084-21.067c-3.162-11.479-14.964-20.471-26.874-20.471H71.997c-11.853 0-23.786 8.897-27.169 20.256l-6.645 21.282h-.02c-7.869 0-14.308 6.439-14.308 14.308v31.481H35.41v9.503c0 3.934 3.219 7.152 7.152 7.152h3.335c3.933 0 7.155-3.219 7.155-7.152v-9.503h72.159v9.503c0 3.934 3.22 7.152 7.153 7.152h3.335c3.933 0 7.153-3.219 7.153-7.152v-9.503h13.292V98.559zM56.253 66.373c1.865-6.253 9.221-11.737 15.744-11.737h34.116c6.476 0 13.658 5.474 15.379 11.714l5.213 17.901h-76.08l5.628-17.878zm-10.355 47.013c-5.237-.125-9.151-4.312-9.081-9.646.082-5.008 4.327-9.042 9.466-8.964 5.144.082 9.312 4.317 9.225 9.399-.101 5.207-4.388 9.308-9.61 9.211zm87.676-.017c-5.125.01-9.228-4.059-9.24-9.165-.018-5.388 4.055-9.461 9.395-9.434 5.11 0 9.189 4.125 9.205 9.22.005 5.324-4.051 9.366-9.36 9.379z"/></symbol><symbol viewBox="0 0 180 180" id="icon-mode-bicycle"><path fill-rule="evenodd" clip-rule="evenodd" d="M133.851 90.269c-3.335 0-6.534.583-9.504 1.646-3.09-6.378-13.301-27.454-13.527-27.975 1.582-.089 2.944-.059 4.272-.269 3.034-.476 4.896-3.565 3.843-6.449-.61-1.667-1.346-3.321-2.297-4.807-.416-.647-1.244-1.155-2.302-1.155-.887 0-1.64.81-1.95 1.497-.296.643-.052 1.649.217 2.403.429 1.204 1.708 3.731 1.708 3.731s-10.086.033-14.78 0c-1.214-.009-2.116-.653-2.642-1.795a136.326 136.326 0 0 0-2.065-4.312c-.75-1.493-2.021-1.998-3.354-1.391-1.275.583-1.777 2.021-1.132 3.451.733 1.625 1.488 3.237 2.314 4.815 1.212 2.316 3.135 3.755 5.748 4.02 1.908.191 3.846.061 5.76.206.526.042 1.251.448 1.479.894 1.424 2.8 4.349 9.563 4.349 9.563H68.275l-3.184-5.379h2.282c1.622-.009 2.631-1.031 2.631-2.495-.001-1.457-1.014-2.422-2.666-2.427H56.536c-1.652.005-2.665.97-2.667 2.427 0 1.464 1.009 2.486 2.631 2.495h2.704l-.029.021 5.918 10.217-7.498 13.494a28.096 28.096 0 0 0-11.446-2.427c-15.582 0-28.214 12.631-28.214 28.212 0 15.582 12.632 28.215 28.214 28.215 14.655 0 26.697-11.175 28.079-25.468h8.169c1.224 3.637 4.655 6.26 8.704 6.26a9.188 9.188 0 0 0 9.189-9.189 9.169 9.169 0 0 0-3.509-7.215l17.157-28.914 5.892 11.834c-8.479 4.866-14.194 14.001-14.194 24.478 0 15.582 12.632 28.215 28.215 28.215 15.581 0 28.213-12.633 28.213-28.215s-12.632-28.212-28.213-28.212zm-51.534 25.327h-8.099c-.867-8.538-5.542-15.95-12.299-20.513l6.214-11.095 16.558 27.731a9.198 9.198 0 0 0-2.374 3.877zm9.875-6.416a9.155 9.155 0 0 0-1.091-.071c-.722 0-1.422.092-2.096.25L71.211 79.302h38.498L92.192 109.18z"/></symbol><symbol viewBox="0 0 180 180" id="icon-mode-multimodal"><path d="M147.162 161.319c-1.307-1.035-2.705-1.985-4.061-2.972-5.018-3.651-10.145-7.201-15.051-10.989 5.99-.656 10.693-5.767 10.693-11.925v-90.75c0-6.6-5.4-12-12-12h-15.98l-4.812-6.899c-1.574-2.255-5.111-4.101-7.861-4.101H81.908c-2.75 0-6.287 1.846-7.861 4.101l-4.812 6.899H53.256c-6.6 0-12 5.4-12 12v90.75c0 6.158 4.703 11.269 10.695 11.925-4.908 3.788-10.035 7.338-15.053 10.989-1.355.986-2.754 1.937-4.061 2.972-.807.643-1.773 1.6-1.406 2.729.174.543.578.988.992 1.37.738.68 1.275.578 2.25.578h110.652c.975 0 1.512.102 2.25-.578.414-.382.818-.827.992-1.37.369-1.129-.598-2.086-1.405-2.729zm-86.398-25.78c-4.881-.116-8.529-4.017-8.463-8.987.076-4.668 4.033-8.427 8.822-8.354 4.793.076 8.678 4.023 8.596 8.76-.096 4.851-4.09 8.673-8.955 8.581zm24.875-29.926a2 2 0 0 1-2 2H50.434a2 2 0 0 1-2-2V65.071a2 2 0 0 1 2-2h33.205a2 2 0 0 1 2 2v40.542zM81.07 42.625c.035-4.764 3.982-8.701 8.715-8.714 4.814-.006 8.68 3.938 8.67 8.846-.01 4.716-3.865 8.557-8.604 8.551-4.88 0-8.828-3.901-8.781-8.683zm12.815 62.988V65.071a2 2 0 0 1 2-2h33.195a2 2 0 0 1 2 2v40.542a2 2 0 0 1-2 2H95.885a2 2 0 0 1-2-2zm24.607 29.912c-4.775.009-8.6-3.783-8.611-8.541-.016-5.021 3.779-8.817 8.756-8.791 4.764 0 8.562 3.843 8.578 8.591.006 4.962-3.774 8.729-8.723 8.741z"/></symbol><symbol viewBox="0 0 180 180" id="icon-mode-pedestrian"><path d="M124.684 137.263c-.834-3.486-3.768-5.365-7.611-4.825a31.046 31.046 0 0 1-.447-.807c-1.697-3.175-3.39-6.351-5.083-9.528-4.751-8.913-9.664-18.131-14.586-27.148-1.144-2.1-1.643-4.195-1.617-6.793.045-4.916.053-9.876.05-14.797 3.463 2.63 7.854 5.881 11.8 8.802 2.146 1.589 4.175 3.092 5.876 4.36a5.884 5.884 0 0 0 3.548 1.188c1.584 0 3.125-.62 4.338-1.745 1.421-1.32 2.157-3.051 2.07-4.877-.093-1.96-1.104-3.775-2.848-5.112a6496.53 6496.53 0 0 0-14.802-11.308l-3.688-2.812c-.662-.505-2.227-1.605-3.739-2.67-1.366-.961-2.777-1.955-3.392-2.416l-.205-.154a5.991 5.991 0 0 0-3.248-2.558c-2.67-.896-5.333-.053-7.252 2.293l-5.125 6.285a6871.114 6871.114 0 0 1-9.421 11.54 2294.662 2294.662 0 0 1-4.509 5.477c-2.333 2.826-4.666 5.652-6.976 8.499l-.117.145c-1.095 1.35-2.336 2.879-2.239 5.027.141 3.075 1.728 5.254 4.473 6.133 2.605.836 5.191-.028 7.1-2.363 2.194-2.683 4.383-5.367 6.574-8.053l4.767-5.842a1687.35 1687.35 0 0 1 3.477-4.244l.808-.985c-.013 4.236-.031 8.475-.053 12.71-.009 2.19.096 4.512 1.269 6.777L68.29 117.275c-3.859 4.905-7.718 9.809-11.572 14.719-1.902 2.43-2.094 5.347-.502 7.611a53.64 53.64 0 0 0 4.108 5.15c1.098 1.22 2.736 1.918 4.494 1.918a6.362 6.362 0 0 0 3.105-.796c2.536-1.414 3.792-4.298 3.054-7.011-.224-.826-.619-1.579-1-2.308l-.251-.482c.118-.155.243-.319.373-.483l4.148-5.274c5.047-6.417 10.094-12.834 15.122-19.262.367-.469.944-1.555.566-2.382l.552 1.037c.826 1.559 1.652 3.118 2.483 4.675l4.809 8.993c3.503 6.555 7.007 13.11 10.523 19.66 1.246 2.322 3.304 3.654 5.648 3.654.662 0 1.335-.108 2.002-.321a56.476 56.476 0 0 0 5.144-1.948 6.212 6.212 0 0 0 3.588-7.162zM90.659 28.973c-6.332-.031-11.152 4.812-11.126 11.187.023 6.049 4.881 10.854 10.961 10.843 6.283-.012 11.064-4.807 11.059-11.089a10.912 10.912 0 0 0-10.894-10.941z"/></symbol><symbol viewBox="0 0 180 180" id="icon-pin-a"><path fill="#FFF" d="M90 18.115c-23.59 0-42.785 20.097-42.785 44.809 0 12.17 5.543 23.502 10.431 33.493a296.92 296.92 0 0 1 2.529 5.238c7.609 16.321 24.424 56.352 24.592 56.751a5.679 5.679 0 0 0 5.126 3.479h.112a5.68 5.68 0 0 0 5.14-3.267c.195-.429 19.737-42.309 26.492-56.981 5.982-12.977 11.148-24.18 11.148-38.713 0-24.712-19.189-44.809-42.785-44.809z"/><path d="M90.005 166h-.112c-3.938-.069-7.411-2.422-8.917-5.994-2.932-6.969-17.556-41.654-24.53-56.611a302.368 302.368 0 0 0-2.492-5.16C48.863 87.828 43.1 76.047 43.1 62.924 43.099 35.947 64.138 14 90 14s46.901 21.947 46.901 48.924c0 15.437-5.341 27.02-11.527 40.434-5.522 11.995-19.587 42.166-24.648 53.028l-1.841 3.947c-1.621 3.456-5.099 5.667-8.88 5.667zM90 22.231c-21.323 0-38.67 18.255-38.67 40.692 0 11.217 5.318 22.087 10.011 31.68.89 1.809 1.76 3.596 2.562 5.308 7.039 15.097 21.717 49.91 24.589 56.735.312.733.863 1.111 1.474 1.122l.04 4.116v-4.116c.604 0 1.158-.354 1.412-.897.02-.04.708-1.514 1.847-3.963 5.062-10.854 19.115-41.007 24.635-52.991 5.779-12.54 10.771-23.365 10.771-36.993C128.67 40.486 111.323 22.231 90 22.231z"/><g><path d="M102.609 86.973l-3.59-11.779H80.981l-3.585 11.779H66.089L83.554 37.29h12.829l17.528 49.683h-11.302zm-6.092-20.579c-3.317-10.669-5.188-16.706-5.6-18.104-.419-1.398-.719-2.506-.9-3.317-.745 2.889-2.878 10.029-6.394 21.422h12.894z"/></g></symbol><symbol viewBox="0 0 180 180" id="icon-pin-b"><path fill="#FFF" d="M90 18.115c-23.59 0-42.785 20.097-42.785 44.809 0 12.17 5.543 23.502 10.431 33.493a296.92 296.92 0 0 1 2.529 5.238c7.609 16.321 24.424 56.352 24.592 56.751a5.679 5.679 0 0 0 5.126 3.479h.112a5.68 5.68 0 0 0 5.14-3.267c.195-.429 19.737-42.309 26.492-56.981 5.982-12.977 11.148-24.18 11.148-38.713 0-24.712-19.189-44.809-42.785-44.809z"/><path d="M90.005 166h-.112c-3.938-.069-7.411-2.422-8.917-5.994-2.932-6.969-17.556-41.654-24.53-56.611a302.368 302.368 0 0 0-2.492-5.16C48.863 87.828 43.1 76.047 43.1 62.924 43.099 35.947 64.138 14 90 14s46.901 21.947 46.901 48.924c0 15.437-5.341 27.02-11.527 40.434-5.522 11.995-19.587 42.166-24.648 53.028l-1.841 3.947c-1.621 3.456-5.099 5.667-8.88 5.667zM90 22.231c-21.323 0-38.67 18.255-38.67 40.692 0 11.217 5.318 22.087 10.011 31.68.89 1.809 1.76 3.596 2.562 5.308 7.039 15.097 21.717 49.91 24.589 56.735.312.733.863 1.111 1.474 1.122l.04 4.116v-4.116c.604 0 1.158-.354 1.412-.897.02-.04.708-1.514 1.847-3.963 5.062-10.854 19.115-41.007 24.635-52.991 5.779-12.54 10.771-23.365 10.771-36.993C128.67 40.486 111.323 22.231 90 22.231z"/><g><path d="M73.757 37.493h15.401c7.016 0 12.111.997 15.278 2.993 3.173 1.999 4.759 5.174 4.759 9.528 0 2.955-.696 5.38-2.084 7.277-1.389 1.895-3.231 3.033-5.53 3.416v.341c3.135.699 5.396 2.007 6.784 3.925 1.388 1.919 2.079 4.467 2.079 7.65 0 4.512-1.629 8.03-4.888 10.557-3.264 2.529-7.689 3.792-13.284 3.792H73.757V37.493zM84.25 57.088h6.093c2.841 0 4.903-.439 6.174-1.32 1.275-.879 1.913-2.334 1.913-4.365 0-1.895-.691-3.256-2.079-4.078-1.389-.822-3.585-1.235-6.586-1.235H84.25v10.998zm0 8.325v12.894h6.838c2.889 0 5.021-.552 6.394-1.655 1.377-1.107 2.068-2.798 2.068-5.078 0-4.107-2.937-6.16-8.8-6.16h-6.5z"/></g></symbol><symbol viewBox="0 0 180 180" id="icon-transit-type-bus"><path d="M140.142 47.383h-1.397v-9c0-6.6-5.547-10.615-12-12-9.316-2-21.384-4-36.942-4-16.212 0-26.624 1.75-36.545 4-6.436 1.46-12 5.4-12 12v9h-1.397c-3.3 0-6 2.7-6 6v8c0 3.3 2.7 6 6 6h1.397v52.344c0 5.882 4.293 10.008 9.898 10.837v10.132c0 3.3 2.7 6 6 6h2.796c3.3 0 6-2.7 6-6v-9.969h48.056v9.969c0 3.3 2.7 6 6 6h2.796c3.3 0 6-2.7 6-6V130.57c5.626-.815 9.941-4.946 9.941-10.843V67.383h1.397c3.3 0 6-2.7 6-6v-8c0-3.3-2.701-6-6-6zM74.609 35.557a2 2 0 0 1 2-2h27.195a2 2 0 0 1 2 2v1.542a2 2 0 0 1-2 2H76.609a2 2 0 0 1-2-2v-1.542zm-13.845 84.681c-4.881-.116-8.529-4.017-8.463-8.987.076-4.668 4.033-8.427 8.822-8.354 4.793.076 8.678 4.023 8.596 8.76-.096 4.851-4.09 8.673-8.955 8.581zm-7.33-24.926a2 2 0 0 1-2-2V49.771a2 2 0 0 1 2-2h72.646a2 2 0 0 1 2 2v43.542a2 2 0 0 1-2 2H53.434zm56.447 16.372c-.016-5.021 3.779-8.817 8.756-8.791 4.764 0 8.562 3.843 8.578 8.591.006 4.962-3.773 8.729-8.723 8.741-4.775.008-8.599-3.784-8.611-8.541z"/></symbol><symbol viewBox="0 0 180 180" id="icon-transit-type-cable_car"><path d="M98.149 27.188l-1.889-3.466c-.617-1.133-2.006-2.06-3.086-2.06h-6.35c-1.08 0-2.469.927-3.086 2.06l-1.889 3.466h16.3zM125.045 29.933h-70.09v4.977h3.81v9.75h62.471v-9.75h3.81v-4.977zm-22.447 9.19a2 2 0 0 1-2 2H79.402a2 2 0 0 1-2-2v-1.542a2 2 0 0 1 2-2h21.195a2 2 0 0 1 2 2v1.542zM143.353 134.921a2.5 2.5 0 0 1-2.487-2.5V71.659c0-1.375 1.119-2.5 2.488-2.5a2.5 2.5 0 0 1 2.487 2.5l-.001 60.762a2.5 2.5 0 0 1-2.487 2.5zM36.768 134.921a2.5 2.5 0 0 1-2.487-2.5V71.659a2.5 2.5 0 0 1 2.487-2.5 2.501 2.501 0 0 1 2.488 2.5l-.001 60.762a2.5 2.5 0 0 1-2.487 2.5zM136.744 147.859v-7.392H43.256v7.392H32.205v4.977h14.051v-4.977H62.36c-3.543 3.599-7.224 7-10.832 10.488-1.021.986-2.073 1.937-3.057 2.972-.607.643-1.335 1.6-1.059 2.729.131.543.436.988.747 1.37.556.68.96.578 1.693.578h80.295c.733 0 1.138.102 1.694-.578.312-.382.615-.827.746-1.37.276-1.129-.451-2.086-1.059-2.729-.983-1.035-2.036-1.985-3.057-2.972-3.608-3.488-7.289-6.89-10.831-10.488h16.103v4.977h14.051v-4.977h-11.05zM136.744 46.946H43.256v61.488h93.488V46.946zm-63.603 55.667H48.27V63.071c0-1.104 1.239-2.305 2.24-3 4.504-3.128 10.364-3.993 15.588-2.324 1.557.497 3.168 1.187 4.57 2.028 1.373.824 2.473 1.881 2.473 3.296v39.542zm29.295 0H77.564V63.071c0-1.104 1.239-2.305 2.24-3 4.504-3.128 10.364-3.993 15.588-2.324 1.557.497 3.168 1.187 4.57 2.028 1.373.824 2.473 1.881 2.473 3.296v39.542zm29.294 0h-24.871V63.071c0-1.104 1.239-2.305 2.24-3 4.504-3.128 10.364-3.993 15.588-2.324 1.557.497 3.168 1.187 4.57 2.028 1.373.824 2.473 1.881 2.473 3.296v39.542zM136.744 112.435H43.256v24.033h93.488v-24.033zm-46.969 19.881c-4.468-.106-7.806-3.675-7.745-8.225.071-4.271 3.689-7.711 8.072-7.644 4.388.067 7.943 3.681 7.867 8.016-.085 4.439-3.742 7.937-8.194 7.853z"/></symbol><symbol viewBox="0 0 180 180" id="icon-transit-type-ferry"><path fill-rule="evenodd" clip-rule="evenodd" d="M90.719 156.761c-2.809 5.414-7.568 8.032-13.645 8.119-6.367.101-11.348-2.518-14.336-8.19-1.461 3.504-4.277 5.651-7.785 7.067-4.225 1.672-8.533 1.643-12.732.029-4.91-1.878-6.924-5.676-7.275-10.398-.049-.653 0-1.332 0-2.174 2.799 3.773 6.973 4.596 11.24 5.067 3.285.369 6.594.131 9.77-.784 2.773-.815 5.348-1.904 6.836-4.597 1.475 2.649 3.984 3.812 6.717 4.545 5.053 1.371 10.141 1.323 15.166-.192 2.883-.876 4.385-1.97 6.049-4.273 2.012 3.289 5.441 4.355 9.041 4.992 4.596.815 9.168.594 13.592-.984 2.174-.775 4.08-1.883 5.238-4.038 2.676 4.021 7.033 4.895 11.49 5.332 4.48.422 8.934.012 12.965-2.104 1.27-.671 2.307-1.721 3.318-2.504.74 5.454-2.273 10.433-7.307 12.179-5.504 1.896-10.748 1.411-15.635-1.677-2.217-1.425-3.105-2.47-4.746-5.398-2.848 5.445-7.729 8.09-13.951 8.112-6.237.012-11.147-2.598-14.01-8.129zM147.232 99.956l-10.366-5.14-4.88-24.052a5.507 5.507 0 0 0-3.345-4.012l-8.422-3.375-2.11-17.589a5.5 5.5 0 0 0-4.301-4.786l-7.92-1.721v-11.51a5.5 5.5 0 0 0-5.5-5.5H79.4a5.5 5.5 0 0 0-5.5 5.5v11.51l-7.92 1.721a5.503 5.503 0 0 0-4.301 4.785l-2.112 17.59-8.42 3.375a5.501 5.501 0 0 0-3.345 4.012l-4.888 24.093-10.173 5.113a5.5 5.5 0 0 0-2.759 6.62l10.707 28.81a5.5 5.5 0 0 0 .837 1.605c2.725 3.613 5.974 7.164 13.015 7.456.165.006.339.01.523.01 1.098 0 3.197-.148 5.558-1.076 3.426 2.967 8.404 4.633 14.256 4.633 4.634 0 10.594-1.183 15.123-4.245 4.528 3.062 10.488 4.245 15.122 4.245 5.852 0 10.83-1.667 14.256-4.634a15.47 15.47 0 0 0 5.557 1.077c.185 0 .359-.004.532-.011 7.036-.291 10.284-3.843 13.007-7.457a5.503 5.503 0 0 0 .836-1.604l10.707-28.81a5.5 5.5 0 0 0-2.786-6.633zm-55.16-27.347a5.494 5.494 0 0 0-4.913.014L55.414 88.576l2.579-12.717 8.734-3.5a5.502 5.502 0 0 0 3.423-4.516l2.041-16.934 8.377-1.819a5.475 5.475 0 0 0 1.857-.793h14.938a5.492 5.492 0 0 0 1.857.793l8.376 1.819 2.04 16.933a5.505 5.505 0 0 0 3.423 4.517l8.736 3.501 2.591 12.77-32.314-16.021z"/></symbol><symbol viewBox="0 0 180 180" id="icon-transit-type-funicular"><path d="M148.611 30.292c-.953-.57-2.377-.8-3.411-.526-8.724 2.298-14.111 3.773-19.816 5.335a2518.11 2518.11 0 0 1-15.84 4.297c-25.034 6.699-50.066 13.398-75.098 20.1l-1.374.364c-1.661.439-3.378.894-5.057 1.404-1.658.504-2.542 1.854-2.305 3.521.238 1.678 1.454 2.676 3.337 2.739l.117.004.436-.083c.33-.06.728-.132 1.116-.236 10.823-2.888 21.646-5.779 32.466-8.677 14.212-3.806 25.77-6.938 37.326-10.071s23.112-6.265 37.322-10.07c.934-.25 1.869-.491 2.805-.732 2.156-.557 4.386-1.132 6.561-1.806.998-.312 2.032-1.296 2.46-2.341.399-.977-.158-2.694-1.045-3.222z"/><path fill-rule="evenodd" clip-rule="evenodd" d="M96.379 53.017c.468 2.479 1.102 5.866 1.53 8.188 1.01 5.501 2.031 10.997 2.999 16.505.157.894.511 1.248 1.415 1.189.931-.064 1.87-.047 2.804-.012 1.49.058 2.132.731 2.195 2.232.155 3.67.155 3.659-3.533 3.654-7.438-.008-14.875-.022-22.311.019-1.13.007-1.688-.236-1.512-1.479.094-.668.011-1.358.021-2.039.028-1.666.625-2.297 2.307-2.38.891-.044 1.787-.067 2.676-.008.861.059 1.207-.321 1.351-1.124 1.098-6.128 2.337-12.236 3.273-18.392.51-3.341 4.025-4.63 6.785-6.353zM84.147 36.342c-.047 3.142-2.371 5.372-5.563 5.342-3.005-.026-5.583-2.623-5.503-5.538.091-3.231 2.618-5.555 5.986-5.497 2.896.048 5.128 2.55 5.08 5.693zM117.68 27.324c.01 2.896-2.526 5.436-5.424 5.427-3.18-.009-5.648-2.405-5.663-5.499-.017-3.057 2.528-5.6 5.587-5.586 3.108.016 5.488 2.462 5.5 5.658zM61.764 46.103c-3.023-.078-5.521-2.646-5.431-5.587.086-2.924 2.77-5.533 5.656-5.5 2.99.033 5.611 2.749 5.519 5.719-.099 3.188-2.52 5.452-5.744 5.368zM100.901 31.802c.023 2.922-2.485 5.479-5.375 5.48-2.984.001-5.654-2.534-5.689-5.405-.041-3.125 2.461-5.707 5.613-5.796 2.953-.083 5.427 2.514 5.451 5.721zM146.069 131.439c-1.989-11.458-4.004-22.911-6.122-34.347-1.121-6.054-4.935-9.09-11.03-9.09-23.456.004-46.914.004-70.369.016-6.499.002-10.302 3.195-11.447 9.6-1.94 10.847-3.84 21.7-5.821 32.539-.377 2.068-.278 4.024.32 6.027 1.151 3.861 2.162 7.764 3.303 11.626 1.082 3.666 2.029 7.394 3.443 10.93 1.912 4.792 5.392 7.312 10.896 7.215 11.493-.205 22.993-.062 34.492-.062v.016c3.985 0 7.97.002 11.955-.001 7.82-.005 15.638-.044 23.456-.004 3.461.018 6.182-1.354 8.026-4.208 1.095-1.695 2.119-3.535 2.698-5.453 2.132-7.078 4.096-14.208 6.039-21.343a8.249 8.249 0 0 0 .161-3.461zm-74.392-2.463c-.003 2.948-1.038 4.136-3.602 4.14a4486.2 4486.2 0 0 1-13.227-.004c-2.542-.004-3.552-1.348-3.073-4.175 1.605-9.54 3.23-19.076 4.867-28.61.438-2.556 1.198-3.242 3.463-3.251 2.798-.009 5.597-.01 8.395.002 2.282.009 3.174 1.008 3.177 3.569.008 4.722.004 9.443.004 14.165 0 4.72.005 9.441-.004 14.164zm18.155 23.977c-.001 2.649-.961 3.928-2.968 3.968-1.481.029-2.962.024-4.441.002-1.997-.031-2.905-1.212-2.91-3.84-.011-8.771-.003-17.541-.003-26.312-.002-8.723-.006-17.445.001-26.167.001-2.554.724-3.508 2.661-3.526 1.702-.017 3.405-.024 5.107.003 1.776.03 2.553 1.063 2.553 3.394.005 17.49.006 34.984 0 52.478zm17.536-.232c-.001 2.981-.854 4.175-2.98 4.204-1.185.016-2.372-.013-3.558 0-2.082.02-2.92-1.129-2.921-4.071-.005-8.721-.003-17.441-.003-26.16 0-8.721-.002-17.442.003-26.163 0-2.453.675-3.431 2.384-3.452 1.56-.02 3.119-.025 4.68.002 1.686.03 2.395 1.062 2.396 3.464a181489 181489 0 0 1-.001 52.176zm25.081-19.619c-4.906.042-9.812.032-14.718.005-2.051-.013-3.125-1.307-3.139-3.764-.024-4.864-.007-9.731-.007-14.597 0-4.721-.007-9.442.003-14.162.004-2.58.848-3.498 3.214-3.507 3.031-.014 6.065-.015 9.098.002 1.97.012 2.902.742 3.291 2.835 1.452 7.827 2.844 15.665 4.262 23.498.342 1.888.705 3.771 1.039 5.661.446 2.542-.622 4.009-3.043 4.029z"/></symbol><symbol viewBox="0 0 180 180" id="icon-transit-type-gondola"><path d="M148.611 30.292c-.953-.57-2.377-.8-3.411-.526-8.724 2.298-14.111 3.773-19.816 5.335a2518.11 2518.11 0 0 1-15.84 4.297c-25.034 6.699-50.066 13.398-75.098 20.1l-1.374.364c-1.661.439-3.378.894-5.057 1.404-1.658.504-2.542 1.854-2.305 3.521.238 1.678 1.454 2.676 3.337 2.739l.117.004.436-.083c.33-.06.728-.132 1.116-.236 10.823-2.888 21.646-5.779 32.466-8.677 14.212-3.806 25.77-6.938 37.326-10.071s23.112-6.265 37.322-10.07c.934-.25 1.869-.491 2.805-.732 2.156-.557 4.386-1.132 6.561-1.806.998-.312 2.032-1.296 2.46-2.341.399-.977-.158-2.694-1.045-3.222z"/><path fill-rule="evenodd" clip-rule="evenodd" d="M96.379 53.017c.468 2.479 1.102 5.866 1.53 8.188 1.01 5.501 2.031 10.997 2.999 16.505.157.894.511 1.248 1.415 1.189.931-.064 1.87-.047 2.804-.012 1.49.058 2.132.731 2.195 2.232.155 3.67.155 3.659-3.533 3.654-7.438-.008-14.875-.022-22.311.019-1.13.007-1.688-.236-1.512-1.479.094-.668.011-1.358.021-2.039.028-1.666.625-2.297 2.307-2.38.891-.044 1.787-.067 2.676-.008.861.059 1.207-.321 1.351-1.124 1.098-6.128 2.337-12.236 3.273-18.392.51-3.341 4.025-4.63 6.785-6.353zM84.147 36.342c-.047 3.142-2.371 5.372-5.563 5.342-3.005-.026-5.583-2.623-5.503-5.538.091-3.231 2.618-5.555 5.986-5.497 2.896.048 5.128 2.55 5.08 5.693zM117.68 27.324c.01 2.896-2.526 5.436-5.424 5.427-3.18-.009-5.648-2.405-5.663-5.499-.017-3.057 2.528-5.6 5.587-5.586 3.108.016 5.488 2.462 5.5 5.658zM61.764 46.103c-3.023-.078-5.521-2.646-5.431-5.587.086-2.924 2.77-5.533 5.656-5.5 2.99.033 5.611 2.749 5.519 5.719-.099 3.188-2.52 5.452-5.744 5.368zM100.901 31.802c.023 2.922-2.485 5.479-5.375 5.48-2.984.001-5.654-2.534-5.689-5.405-.041-3.125 2.461-5.707 5.613-5.796 2.953-.083 5.427 2.514 5.451 5.721zM146.069 131.439c-1.989-11.458-4.004-22.911-6.122-34.347-1.121-6.054-4.935-9.09-11.03-9.09-23.456.004-46.914.004-70.369.016-6.499.002-10.302 3.195-11.447 9.6-1.94 10.847-3.84 21.7-5.821 32.539-.377 2.068-.278 4.024.32 6.027 1.151 3.861 2.162 7.764 3.303 11.626 1.082 3.666 2.029 7.394 3.443 10.93 1.912 4.792 5.392 7.312 10.896 7.215 11.493-.205 22.993-.062 34.492-.062v.016c3.985 0 7.97.002 11.955-.001 7.82-.005 15.638-.044 23.456-.004 3.461.018 6.182-1.354 8.026-4.208 1.095-1.695 2.119-3.535 2.698-5.453 2.132-7.078 4.096-14.208 6.039-21.343a8.249 8.249 0 0 0 .161-3.461zm-74.392-2.463c-.003 2.948-1.038 4.136-3.602 4.14a4486.2 4486.2 0 0 1-13.227-.004c-2.542-.004-3.552-1.348-3.073-4.175 1.605-9.54 3.23-19.076 4.867-28.61.438-2.556 1.198-3.242 3.463-3.251 2.798-.009 5.597-.01 8.395.002 2.282.009 3.174 1.008 3.177 3.569.008 4.722.004 9.443.004 14.165 0 4.72.005 9.441-.004 14.164zm18.155 23.977c-.001 2.649-.961 3.928-2.968 3.968-1.481.029-2.962.024-4.441.002-1.997-.031-2.905-1.212-2.91-3.84-.011-8.771-.003-17.541-.003-26.312-.002-8.723-.006-17.445.001-26.167.001-2.554.724-3.508 2.661-3.526 1.702-.017 3.405-.024 5.107.003 1.776.03 2.553 1.063 2.553 3.394.005 17.49.006 34.984 0 52.478zm17.536-.232c-.001 2.981-.854 4.175-2.98 4.204-1.185.016-2.372-.013-3.558 0-2.082.02-2.92-1.129-2.921-4.071-.005-8.721-.003-17.441-.003-26.16 0-8.721-.002-17.442.003-26.163 0-2.453.675-3.431 2.384-3.452 1.56-.02 3.119-.025 4.68.002 1.686.03 2.395 1.062 2.396 3.464a181489 181489 0 0 1-.001 52.176zm25.081-19.619c-4.906.042-9.812.032-14.718.005-2.051-.013-3.125-1.307-3.139-3.764-.024-4.864-.007-9.731-.007-14.597 0-4.721-.007-9.442.003-14.162.004-2.58.848-3.498 3.214-3.507 3.031-.014 6.065-.015 9.098.002 1.97.012 2.902.742 3.291 2.835 1.452 7.827 2.844 15.665 4.262 23.498.342 1.888.705 3.771 1.039 5.661.446 2.542-.622 4.009-3.043 4.029z"/></symbol><symbol viewBox="0 0 180 180" id="icon-transit-type-metro"><path d="M145.163 161.319c-1.307-1.035-2.705-1.985-4.062-2.972-5.017-3.651-10.144-7.201-15.051-10.989 5.99-.656 10.693-5.767 10.693-11.925v-75.75c0-6.6-5.4-12-12-12H55.257c-6.6 0-12 5.4-12 12v75.75c0 6.158 4.703 11.269 10.694 11.925-4.908 3.788-10.035 7.338-15.052 10.989-1.356.986-2.755 1.937-4.062 2.972-.806.643-1.772 1.6-1.405 2.729.173.543.578.988.991 1.37.739.68 1.276.578 2.25.578h106.653c.974 0 1.511.102 2.25-.578.413-.382.818-.827.991-1.37.369-1.129-.598-2.086-1.404-2.729zm-84.136-25.78c-4.881-.116-8.53-4.017-8.464-8.987.077-4.668 4.033-8.427 8.822-8.354 4.794.076 8.679 4.023 8.597 8.76-.095 4.851-4.089 8.673-8.955 8.581zm24.875-27.926a2 2 0 0 1-2 2H52.696a2 2 0 0 1-2-2V74.071a2 2 0 0 1 2-2h31.206a2 2 0 0 1 2 2v33.542zm8.246 0V74.071a2 2 0 0 1 2-2h31.195a2 2 0 0 1 2 2v33.542a2 2 0 0 1-2 2H96.148a2 2 0 0 1-2-2zM76.609 60.399v-1.542a2 2 0 0 1 2-2h23.195a2 2 0 0 1 2 2v1.542a2 2 0 0 1-2 2H78.609a2 2 0 0 1-2-2zm42.146 75.126c-4.775.009-8.6-3.783-8.611-8.541-.015-5.021 3.78-8.817 8.757-8.791 4.764 0 8.562 3.843 8.578 8.591.004 4.962-3.774 8.729-8.724 8.741z"/><path d="M160.062 165.996h-8v-88.01c0-27.019-21.981-49-49-49H76.938c-27.019 0-49 21.981-49 49v88.01h-8v-88.01c0-31.43 25.57-57 57-57h26.125c31.43 0 57 25.57 57 57v88.01z"/></symbol><symbol viewBox="0 0 180 180" id="icon-transit-type-rail"><path d="M147.162 161.319c-1.307-1.035-2.705-1.985-4.061-2.972-5.018-3.651-10.145-7.201-15.051-10.989 5.99-.656 10.693-5.767 10.693-11.925v-90.75c0-6.6-5.4-12-12-12h-15.98l-4.812-6.899c-1.574-2.255-5.111-4.101-7.861-4.101H81.908c-2.75 0-6.287 1.846-7.861 4.101l-4.812 6.899H53.256c-6.6 0-12 5.4-12 12v90.75c0 6.158 4.703 11.269 10.695 11.925-4.908 3.788-10.035 7.338-15.053 10.989-1.355.986-2.754 1.937-4.061 2.972-.807.643-1.773 1.6-1.406 2.729.174.543.578.988.992 1.37.738.68 1.275.578 2.25.578h110.652c.975 0 1.512.102 2.25-.578.414-.382.818-.827.992-1.37.369-1.129-.598-2.086-1.405-2.729zm-86.398-25.78c-4.881-.116-8.529-4.017-8.463-8.987.076-4.668 4.033-8.427 8.822-8.354 4.793.076 8.678 4.023 8.596 8.76-.096 4.851-4.09 8.673-8.955 8.581zm24.875-29.926a2 2 0 0 1-2 2H50.434a2 2 0 0 1-2-2V65.071a2 2 0 0 1 2-2h33.205a2 2 0 0 1 2 2v40.542zM81.07 42.625c.035-4.764 3.982-8.701 8.715-8.714 4.814-.006 8.68 3.938 8.67 8.846-.01 4.716-3.865 8.557-8.604 8.551-4.88 0-8.828-3.901-8.781-8.683zm12.815 62.988V65.071a2 2 0 0 1 2-2h33.195a2 2 0 0 1 2 2v40.542a2 2 0 0 1-2 2H95.885a2 2 0 0 1-2-2zm24.607 29.912c-4.775.009-8.6-3.783-8.611-8.541-.016-5.021 3.779-8.817 8.756-8.791 4.764 0 8.562 3.843 8.578 8.591.006 4.962-3.774 8.729-8.723 8.741z"/></symbol><symbol viewBox="0 0 180 180" id="icon-transit-type-tram"><path d="M147.162 161.319c-1.307-1.035-2.705-1.985-4.061-2.972-5.018-3.651-10.145-7.201-15.051-10.989 5.99-.656 10.693-5.767 10.693-11.925v-74.75c0-6.6-5.4-12-12-12h-25.155l8.622-17.934c.137-.236.195-.495.195-.75h4.701c.281.026.865.368 1.012.578l3.77 6.693a3.998 3.998 0 0 0 5.449 1.522 4 4 0 0 0 1.521-5.448l-3.77-6.693C121.57 23.956 118.225 22 115.131 22H64.865c-3.092 0-6.439 1.956-7.957 4.651l-3.77 6.693a4 4 0 0 0 6.97 3.926l3.756-6.672c.162-.231.746-.573 1-.599h4.729c0 .255.059.513.195.75l8.622 17.933H53.256c-6.6 0-12 5.4-12 12v74.75c0 6.158 4.703 11.269 10.695 11.925-4.908 3.788-10.035 7.338-15.053 10.989-1.355.986-2.754 1.937-4.061 2.972-.807.643-1.773 1.6-1.406 2.729.174.543.578.988.992 1.37.738.68 1.275.578 2.25.578h110.652c.975 0 1.512.102 2.25-.578.414-.382.818-.827.992-1.37.369-1.128-.598-2.085-1.405-2.728zM88.361 48.684c0-.255-9.815-18.683-9.815-18.683L101.454 30s-9.817 18.429-9.817 18.684h-3.276zm-27.597 86.855c-4.881-.116-8.529-4.017-8.463-8.987.076-4.668 4.033-8.427 8.822-8.354 4.793.076 8.678 4.023 8.596 8.76-.096 4.851-4.09 8.673-8.955 8.581zm57.728-.014c-4.775.009-8.6-3.783-8.611-8.541-.016-5.021 3.779-8.817 8.756-8.791 4.764 0 8.562 3.843 8.578 8.591.006 4.962-3.774 8.729-8.723 8.741zm7.588-27.912H53.434a2 2 0 0 1-2-2V66.071a2 2 0 0 1 2-2h72.646a2 2 0 0 1 2 2v39.542c0 1.105-.894 2-2 2z"/></symbol></svg>